<?xml version="1.0" standalone="no"?>
<!DOCTYPE svg PUBLIC "-//W3C//DTD SVG 20010904//EN"
 "http://www.w3.org/TR/2001/REC-SVG-20010904/DTD/svg10.dtd">
<svg version="1.0" xmlns="http://www.w3.org/2000/svg"
 width="900.000000pt" height="1781.000000pt" viewBox="0 0 900.000000 1781.000000"
 preserveAspectRatio="xMidYMid meet">

<g transform="translate(0.000000,1781.000000) scale(0.100000,-0.100000)"
fill="#000000" stroke="none">
<path d="M0 16595 c0 -876 3 -1215 11 -1215 7 0 9 12 7 30 -3 17 -1 33 4 36 4
3 8 -11 8 -31 0 -22 -6 -38 -15 -41 -22 -9 -22 -922 0 -931 8 -3 15 -10 15
-15 0 -6 -6 -6 -14 1 -12 10 -14 3 -15 -49 0 -33 3 -58 7 -56 5 3 14 0 22 -5
12 -8 11 -9 -5 -7 -19 3 -20 -3 -21 -117 -1 -79 3 -123 10 -127 8 -6 7 -8 -1
-8 -17 0 -18 -196 -2 -206 8 -4 7 -9 -2 -14 -10 -7 -10 -12 -1 -23 7 -7 9 -17
5 -21 -14 -13 -10 -75 5 -81 11 -4 13 2 10 30 -2 19 0 35 4 35 4 0 8 -18 8
-40 0 -33 -3 -40 -18 -38 -14 2 -17 -5 -18 -37 0 -22 4 -43 10 -47 7 -5 7 -8
1 -8 -6 0 -12 -16 -13 -36 -2 -20 1 -33 7 -30 5 3 12 0 14 -6 3 -7 3 4 1 24
-2 20 1 40 6 43 6 4 10 -21 9 -67 0 -47 -3 -66 -8 -53 -5 11 -7 23 -5 26 2 4
-3 9 -11 13 -11 4 -15 -2 -15 -20 0 -14 4 -22 10 -19 6 3 7 -1 4 -9 -3 -9 -3
-24 1 -33 7 -17 8 -16 15 2 6 14 9 6 9 -30 0 -32 -2 -45 -8 -36 -7 11 -9 11
-14 0 -4 -10 -6 -9 -6 4 -1 9 4 17 10 17 5 0 7 5 4 10 -4 6 -11 8 -16 5 -13
-8 -11 -55 2 -55 6 0 7 -5 2 -12 -12 -19 -11 -72 1 -80 8 -5 7 -8 -1 -8 -9 0
-13 -17 -13 -50 0 -27 5 -50 10 -50 6 0 10 -12 10 -26 0 -14 -4 -23 -9 -19 -6
3 -9 -22 -9 -60 0 -51 4 -65 15 -65 12 0 14 9 11 40 -2 22 0 40 4 40 5 0 8
-22 8 -50 0 -33 -4 -50 -12 -50 -9 0 -8 -4 2 -10 8 -5 10 -10 4 -10 -5 0 -15
5 -22 12 -9 9 -12 -6 -12 -70 0 -47 4 -82 10 -82 6 0 5 -10 -2 -25 -14 -31 -4
-43 19 -24 15 12 16 12 10 -3 -3 -9 -1 -19 6 -22 7 -3 0 -3 -15 0 -25 6 -28 3
-28 -20 0 -19 7 -29 26 -36 22 -9 24 -13 13 -26 -6 -8 -18 -13 -26 -10 -7 3
-13 1 -13 -3 0 -5 6 -12 13 -14 10 -4 10 -6 0 -6 -7 -1 -13 -11 -13 -23 0 -19
2 -20 10 -8 7 11 10 11 10 2 0 -7 4 -10 10 -7 5 3 10 0 10 -8 0 -10 -7 -13
-20 -10 -11 3 -20 0 -20 -6 0 -6 9 -11 20 -11 11 0 20 -7 20 -15 0 -8 -4 -15
-10 -15 -5 0 -10 5 -10 11 0 5 -5 7 -11 3 -8 -4 -7 -9 2 -15 10 -6 11 -9 2 -9
-7 0 -13 -4 -13 -10 0 -5 7 -10 15 -10 8 0 15 5 15 10 0 6 3 10 8 10 4 0 6
-29 4 -64 -3 -52 -7 -63 -20 -62 -12 1 -18 -8 -20 -28 -5 -38 6 -96 18 -96 5
0 7 6 4 14 -3 8 -1 17 5 21 7 4 11 -8 11 -34 0 -32 -3 -39 -15 -35 -8 4 -12
10 -9 15 3 5 0 9 -5 9 -15 0 -14 -37 2 -43 10 -4 10 -6 0 -6 -7 -1 -13 -8 -13
-17 0 -8 5 -12 10 -9 6 3 10 1 10 -4 0 -6 -6 -11 -12 -12 -7 0 -3 -5 9 -11 17
-8 23 -20 23 -45 0 -30 -8 -38 -32 -34 -5 0 -8 -17 -8 -39 0 -37 7 -46 34 -41
5 1 3 -6 -5 -15 -8 -10 -9 -15 -2 -11 9 6 12 -22 12 -113 -1 -108 -3 -122 -20
-133 -26 -16 -24 -27 6 -27 22 0 25 -4 22 -35 -1 -19 -6 -35 -11 -35 -4 0 -6
11 -4 24 6 29 -19 45 -29 19 -4 -9 -1 -19 5 -21 7 -2 12 -10 12 -18 0 -8 5
-14 10 -14 6 0 10 -5 10 -12 0 -9 -3 -9 -12 0 -23 23 -28 12 -28 -55 l1 -68
24 28 c15 17 25 23 25 14 0 -8 -7 -20 -15 -27 -9 -7 -13 -21 -10 -31 4 -11 2
-19 -4 -19 -5 0 -12 8 -15 18 -2 9 -3 1 -2 -18 2 -30 6 -35 24 -32 20 3 22 -1
22 -51 0 -52 -1 -54 -25 -52 l-25 3 0 -89 c0 -49 4 -89 8 -89 5 0 17 -7 28
-15 16 -13 16 -14 1 -9 -10 4 -17 1 -17 -6 0 -6 -4 -8 -10 -5 -5 3 -10 -1 -10
-9 0 -9 8 -16 19 -16 11 0 22 -4 25 -9 3 -4 -6 -6 -19 -3 -21 4 -25 1 -25 -22
0 -14 5 -27 10 -27 6 -1 16 -2 23 -3 6 0 12 -10 12 -21 0 -14 -8 -21 -24 -23
-16 -3 -20 -6 -12 -12 10 -6 10 -12 0 -28 -11 -17 -11 -24 -1 -34 9 -9 12 -8
12 5 0 10 5 14 15 11 22 -9 18 -34 -4 -34 -11 0 -22 -4 -25 -8 -3 -5 5 -8 17
-8 21 1 22 -4 25 -80 2 -66 0 -83 -13 -87 -10 -4 -15 -1 -15 10 0 33 -12 3
-17 -41 -4 -42 -2 -46 21 -52 27 -6 33 -18 15 -29 -6 -4 -17 1 -24 11 -14 18
-14 17 -13 -8 2 -26 32 -46 42 -27 2 5 3 4 2 -3 -2 -7 -13 -12 -24 -10 -20 3
-22 -1 -22 -38 0 -37 2 -41 20 -35 12 4 20 2 20 -5 0 -6 -4 -8 -10 -5 -6 4
-10 -5 -10 -21 0 -20 3 -24 13 -16 10 8 12 2 12 -29 0 -21 -3 -39 -7 -39 -7 0
-12 15 -10 32 1 3 -5 12 -13 18 -13 10 -14 8 -11 -17 1 -17 6 -35 10 -42 4 -6
2 -11 -3 -11 -6 0 -11 -16 -11 -35 0 -30 3 -34 22 -32 18 1 24 -4 26 -23 2
-22 1 -23 -9 -7 -8 14 -14 16 -25 6 -17 -14 -20 -175 -3 -199 9 -13 10 -13 8
0 -3 32 1 51 11 45 6 -3 10 1 10 9 0 9 -6 16 -12 16 -9 0 -9 3 1 9 8 5 12 18
8 30 -3 12 -1 21 3 21 9 0 17 -127 12 -168 -3 -18 -8 -22 -25 -18 -12 3 -16 3
-9 0 10 -5 9 -10 -5 -21 -17 -13 -16 -13 4 -4 25 13 33 -1 33 -55 0 -30 -3
-34 -19 -29 -25 8 -31 -11 -29 -97 0 -40 5 -68 11 -68 7 0 6 -5 -1 -12 -15
-15 -16 -32 -1 -22 8 4 9 -1 4 -17 -15 -47 -12 -64 13 -62 26 3 30 -15 5 -24
-28 -10 -31 -20 -32 -123 -2 -95 -1 -99 21 -103 l23 -4 -23 -2 c-20 -1 -23 -6
-20 -33 2 -28 7 -32 25 -30 18 3 23 -2 23 -19 0 -17 -5 -20 -24 -17 -24 5 -24
5 -24 -88 0 -74 4 -94 16 -99 8 -3 19 0 24 7 5 9 8 8 8 -6 0 -14 -5 -17 -23
-12 -17 4 -24 1 -24 -10 0 -11 7 -14 24 -11 17 3 23 0 23 -14 0 -20 -15 -25
-25 -9 -13 21 -25 9 -25 -25 0 -21 5 -35 12 -35 9 0 9 -3 0 -12 -19 -19 -14
-35 12 -42 17 -4 25 -15 29 -38 3 -18 1 -37 -4 -42 -6 -6 -9 -5 -9 2 0 7 -9
12 -20 12 -11 0 -20 -4 -20 -10 0 -5 5 -10 12 -10 9 0 9 -3 0 -12 -22 -22 -14
-41 16 -35 l27 5 0 -61 c0 -58 -2 -63 -27 -74 -21 -9 -28 -19 -28 -39 0 -23 3
-25 25 -20 21 5 25 3 25 -14 0 -12 -12 -32 -27 -45 -16 -13 -25 -27 -21 -31 5
-4 17 1 28 11 11 10 20 14 21 9 0 -5 2 -78 2 -161 l2 -153 -26 0 c-24 0 -27
-3 -27 -45 -1 -31 4 -47 15 -53 9 -6 12 -12 5 -16 -5 -3 -8 -16 -5 -29 3 -14
2 -18 -4 -10 -6 9 -9 1 -10 -21 -1 -32 1 -34 22 -26 34 13 39 -12 6 -27 l-26
-12 23 -6 c12 -4 22 -11 22 -16 0 -14 -38 -11 -43 4 -3 7 -6 5 -6 -5 -1 -10 3
-18 9 -18 5 0 7 -14 4 -32 -8 -45 -15 -248 -9 -273 2 -12 13 -21 26 -22 27 -2
33 -8 26 -27 -4 -9 -15 -13 -30 -11 -21 4 -23 1 -26 -40 -2 -39 1 -45 19 -45
12 0 20 7 20 18 0 14 2 15 10 2 16 -25 12 -30 -22 -30 -23 0 -29 -3 -19 -9 7
-5 10 -14 7 -20 -4 -6 0 -14 9 -17 20 -8 34 4 16 15 -10 7 -9 10 3 14 12 5 16
0 16 -19 0 -22 -4 -25 -27 -22 -14 2 -28 -2 -30 -8 -5 -15 33 -24 46 -11 9 9
9 -21 2 -72 -1 -2 -8 2 -16 9 -13 11 -15 8 -15 -14 0 -15 -4 -25 -8 -22 -12 7
-9 -38 3 -46 7 -5 6 -8 0 -8 -6 0 -11 -9 -12 -19 -1 -13 8 -23 28 -30 25 -8
29 -15 29 -45 0 -34 -1 -35 -30 -29 -29 5 -30 4 -30 -31 0 -21 4 -35 9 -32 5
4 7 -14 5 -39 -3 -30 0 -45 7 -45 8 0 7 -6 -2 -17 -8 -9 -9 -14 -3 -10 7 4 15
0 18 -8 4 -11 0 -15 -12 -13 -20 4 -30 -48 -13 -65 6 -6 11 -20 11 -31 0 -17
-2 -18 -10 -6 -8 13 -10 12 -10 -2 0 -10 7 -18 17 -18 15 0 15 -1 0 -18 -21
-23 -21 -32 -2 -32 8 0 19 9 25 20 20 38 25 20 22 -80 -2 -55 -8 -100 -13
-100 -5 0 -9 -7 -9 -16 0 -8 4 -13 8 -10 5 3 9 -13 10 -35 2 -32 0 -39 -15
-38 -11 0 -13 3 -6 6 15 5 17 39 4 47 -5 3 -12 21 -15 41 -8 41 -23 55 -23 20
0 -14 3 -25 7 -25 16 0 18 -55 4 -71 -11 -13 -12 -18 -3 -21 9 -3 9 -9 0 -26
-13 -24 -12 -162 1 -162 4 0 8 -5 8 -11 0 -5 -4 -7 -10 -4 -5 3 -10 2 -10 -4
0 -5 6 -12 13 -14 9 -4 9 -6 0 -6 -16 -1 -17 -37 -2 -47 8 -5 8 -9 -1 -14 -15
-10 -1 -35 20 -35 8 0 18 7 22 15 3 8 5 -2 5 -22 -2 -43 -11 -49 -22 -15 -4
13 -8 17 -12 9 -2 -6 -9 -10 -14 -6 -14 8 -11 -20 4 -35 7 -9 8 -12 0 -7 -8 4
-11 -28 -12 -120 -1 -99 1 -125 11 -122 7 3 22 -4 33 -15 11 -11 16 -18 10
-15 -5 3 -20 2 -33 -3 -22 -8 -23 -14 -20 -76 1 -38 7 -72 13 -76 7 -6 6 -10
-3 -14 -14 -6 -16 -43 -2 -43 6 0 10 -6 10 -14 0 -8 7 -17 16 -20 13 -5 15 -1
11 16 -3 13 -2 32 2 42 4 11 8 -7 9 -47 2 -61 0 -67 -18 -67 -11 0 -20 -6 -20
-14 0 -8 -6 -17 -13 -20 -6 -4 -2 -4 11 -2 19 4 21 2 11 -10 -6 -7 -15 -12
-19 -9 -4 3 -7 -6 -6 -20 0 -13 5 -20 9 -16 5 5 17 6 28 4 14 -4 19 -14 19
-40 0 -29 -2 -32 -18 -24 -10 5 -23 7 -29 3 -13 -8 -16 -132 -4 -165 8 -21 9
-21 16 8 11 49 13 52 16 20 2 -27 2 -27 9 10 l8 40 -2 -45 c0 -25 -5 -45 -11
-46 -29 -2 -45 -18 -45 -44 0 -21 6 -29 25 -32 13 -3 26 0 29 6 2 6 5 -13 5
-41 1 -29 -3 -53 -8 -53 -4 0 -6 12 -3 27 l5 26 -26 -19 c-37 -27 -35 -51 3
-49 l30 2 0 -80 c0 -44 -3 -78 -6 -74 -4 3 -6 27 -6 52 1 44 -9 58 -24 33 -4
-6 -2 -14 5 -16 8 -3 5 -9 -8 -19 -20 -13 -31 -70 -12 -59 5 3 6 16 3 29 -5
21 -5 21 12 5 14 -15 15 -20 4 -38 -7 -11 -15 -20 -18 -20 -8 0 -6 -67 2 -76
12 -11 10 -26 -2 -19 -7 4 -10 -46 -9 -149 1 -106 5 -156 13 -156 7 0 7 -3 -1
-8 -16 -10 -17 -562 0 -562 9 0 9 -2 0 -8 -16 -10 -14 -552 2 -552 5 0 4 -4
-3 -8 -18 -12 -11 -54 13 -75 20 -18 20 -18 -3 -12 -23 7 -23 6 -21 -69 2 -67
4 -76 20 -76 11 0 19 -4 19 -9 0 -5 -8 -8 -17 -7 -15 1 -19 -9 -21 -52 -2 -39
0 -52 8 -47 9 6 9 2 1 -12 -7 -14 -10 -464 -11 -1467 l0 -1446 4500 0 4500 0
0 2005 c0 1581 -3 2005 -13 2005 -8 0 -8 3 -2 8 16 11 16 52 0 52 -8 0 -13 9
-12 20 1 11 7 20 14 20 7 0 13 7 13 15 0 8 -7 15 -15 15 -19 0 -19 19 0 26 24
10 19 63 -7 74 -18 7 -19 9 -5 9 21 1 23 21 2 21 -13 0 -14 2 -3 14 7 8 16 12
19 10 3 -2 6 26 5 61 0 68 0 68 -51 67 -17 -1 -17 0 -2 4 10 3 14 10 10 17 -4
7 0 7 10 -1 9 -8 20 -11 26 -8 5 3 9 68 10 143 1 135 -11 202 -34 204 -5 0 -1
4 11 9 20 8 21 15 22 154 0 86 -4 146 -10 146 -5 0 -6 5 -3 10 12 19 13 80 2
80 -7 0 -7 4 1 12 7 7 12 40 12 76 0 57 -2 63 -15 52 -9 -7 -18 -10 -21 -7 -3
3 4 10 15 17 27 14 27 28 -1 33 l-23 4 23 2 c15 1 22 7 22 21 0 11 -4 20 -10
20 -5 0 -10 -4 -10 -10 0 -5 -5 -10 -12 -10 -6 0 -9 3 -6 6 4 3 2 19 -2 35 -5
17 -5 31 1 34 5 4 9 -3 9 -15 0 -19 2 -20 15 -6 17 16 21 61 5 51 -5 -3 -10
-2 -10 4 0 5 5 13 10 16 14 9 12 62 -2 68 -10 4 -10 6 0 6 6 1 12 7 12 15 0 8
-6 17 -12 19 -10 4 -10 6 0 6 8 1 12 25 12 84 0 77 -2 85 -22 95 l-23 11 23 0
c21 1 23 5 21 45 -2 28 -7 42 -14 40 -7 -3 -17 2 -24 10 -11 13 -9 16 12 21
l26 7 -3 301 c-2 166 -6 310 -11 320 -4 9 -5 26 -2 37 4 14 0 20 -12 20 -11 0
-17 7 -16 20 2 26 15 39 15 15 0 -41 20 2 26 57 6 54 5 56 -17 61 l-24 4 23 2
23 1 -2 155 c-2 104 -6 155 -13 155 -7 0 -6 4 2 8 16 11 12 61 -5 55 -9 -4
-11 0 -7 11 3 9 10 13 15 10 5 -3 9 11 9 30 0 22 -5 36 -12 36 -9 0 -8 4 2 10
13 9 13 11 0 20 -13 9 -13 11 0 20 10 6 11 10 3 10 -7 0 -13 10 -12 23 0 21 1
21 9 2 5 -11 8 220 8 525 -1 384 -4 547 -12 552 -8 5 -7 8 2 8 16 0 16 27 0
33 -10 4 -10 6 0 6 19 1 14 31 -6 31 -11 0 -18 8 -19 23 0 12 1 16 4 10 7 -18
23 -16 23 2 0 8 -7 15 -15 15 -8 0 -15 5 -15 10 0 6 3 9 8 9 22 -4 29 4 30 31
0 17 -4 30 -10 30 -7 0 -7 4 -1 13 14 16 13 50 -1 59 -7 5 -7 8 2 8 11 0 13
19 11 83 -2 45 -8 85 -13 89 -7 5 -7 8 2 8 7 0 12 13 12 30 0 17 -5 30 -12 30
-10 0 -10 2 -1 8 8 5 12 38 12 95 0 53 -4 85 -9 82 -6 -4 -10 -1 -10 4 0 6 5
11 10 11 6 0 10 7 10 16 0 8 -4 12 -10 9 -5 -3 -10 1 -10 9 0 9 4 16 10 16 15
0 12 267 -3 274 -9 3 -9 5 1 5 10 1 12 48 12 213 -1 117 -4 207 -8 201 -4 -6
-22 -8 -39 -6 -33 5 -33 5 -33 64 0 35 4 59 11 59 6 0 9 -20 7 -52 -3 -47 -1
-51 20 -53 12 -1 22 2 22 7 0 4 -6 8 -14 8 -10 0 -13 12 -12 43 0 25 6 42 13
42 7 0 17 5 24 12 16 16 -9 73 -30 66 -14 -4 -14 -3 -1 9 14 12 14 15 -1 30
-10 9 -20 14 -23 10 -3 -3 -6 2 -6 11 0 10 3 16 8 16 31 -5 62 3 62 16 0 8 -6
15 -12 15 -9 0 -9 3 -3 8 6 4 12 19 13 35 1 21 -3 27 -18 27 -27 0 -25 18 3
30 l22 9 -24 0 c-19 1 -21 4 -12 15 9 11 9 15 -1 19 -9 4 -7 6 4 6 21 1 27 22
26 94 -1 55 -2 58 -22 53 -21 -5 -21 -5 2 14 27 22 28 30 5 30 -15 0 -18 9
-18 55 0 30 3 55 8 55 4 0 7 -4 7 -10 0 -5 5 -10 10 -10 6 0 10 7 10 15 0 8
-4 15 -10 15 -5 0 -10 9 -10 19 0 11 5 23 10 26 6 3 10 11 10 18 0 8 -3 8 -12
-1 -21 -21 -24 -14 -24 48 1 50 4 60 18 60 10 0 18 7 18 15 0 8 -6 15 -12 15
-9 0 -8 4 2 10 13 9 13 11 0 20 -10 6 -11 10 -2 10 6 0 12 7 12 15 0 8 -3 14
-7 13 -5 -2 -8 2 -8 7 0 6 3 9 7 8 3 -1 7 33 7 77 0 47 -3 80 -9 80 -6 0 -10
5 -10 11 0 5 5 7 10 4 14 -9 12 29 -2 43 -9 9 -9 12 -1 12 8 0 11 21 10 63 -2
59 -3 62 -29 65 -14 2 -32 11 -39 20 -11 14 -11 15 1 5 21 -19 40 -16 34 5 -5
16 -5 16 6 0 19 -30 30 -20 29 25 -2 43 -15 71 -29 62 -4 -3 -10 1 -13 9 -4
10 0 12 14 9 15 -4 18 -2 13 11 -3 9 -1 16 5 16 6 0 11 19 11 45 0 29 -4 44
-12 43 -6 -2 -12 10 -12 27 -1 25 -5 30 -24 28 -13 -2 -21 1 -17 7 3 6 15 10
26 10 10 0 19 5 19 11 0 7 -10 9 -25 7 -19 -4 -25 -1 -25 13 0 11 5 19 11 19
5 0 7 -4 4 -10 -3 -5 3 -10 14 -10 19 0 21 6 21 63 0 36 5 68 12 75 9 9 9 15
0 24 -13 13 -17 88 -4 88 17 0 11 57 -8 78 -12 12 -16 22 -9 22 7 0 10 16 7
45 -2 31 1 45 9 45 7 0 13 11 13 24 0 35 -18 78 -30 71 -5 -3 -10 -1 -10 5 0
7 7 10 15 7 8 -4 17 -2 20 3 3 4 -1 10 -7 13 -10 3 -10 8 1 21 11 13 12 19 3
25 -12 7 -15 111 -3 111 4 0 8 16 9 35 1 21 -3 33 -8 30 -6 -3 -10 5 -10 19 0
14 5 26 10 26 6 0 10 33 10 80 0 44 -4 80 -8 80 -5 0 -9 14 -9 30 0 17 5 30
11 30 6 0 4 5 -4 11 -11 8 -12 12 -3 16 18 7 17 89 -1 96 -9 4 -12 14 -9 26 3
12 9 18 14 15 5 -3 9 -1 9 5 0 5 -6 12 -12 14 -10 4 -10 6 -1 6 10 1 13 532
13 2476 l0 2475 -488 0 c-377 0 -491 -3 -501 -12 -11 -10 -13 -10 -7 0 6 9
-797 12 -3998 12 l-4006 0 0 -1215z m17 583 c-3 -8 -6 -5 -6 6 -1 11 2 17 5
13 3 -3 4 -12 1 -19z m0 -135 c-3 -10 -5 -4 -5 12 0 17 2 24 5 18 2 -7 2 -21
0 -30z m0 -175 c-3 -8 -6 -5 -6 6 -1 11 2 17 5 13 3 -3 4 -12 1 -19z m0 -50
c-3 -8 -6 -5 -6 6 -1 11 2 17 5 13 3 -3 4 -12 1 -19z m0 -50 c-3 -8 -6 -5 -6
6 -1 11 2 17 5 13 3 -3 4 -12 1 -19z m13 -40 c0 -7 -5 -20 -10 -28 -8 -12 -10
-9 -10 13 0 15 5 27 10 27 6 0 10 -6 10 -12z m0 -52 c0 -3 -4 -8 -10 -11 -5
-3 -10 -1 -10 4 0 6 5 11 10 11 6 0 10 -2 10 -4z m0 -97 c0 -16 -3 -29 -7 -29
-5 0 -8 15 -8 34 0 19 3 32 8 29 4 -2 7 -17 7 -34z m0 -119 c0 -5 -5 -10 -11
-10 -5 0 -7 5 -4 10 3 6 8 10 11 10 2 0 4 -4 4 -10z m0 -160 c0 -11 -2 -20 -4
-20 -2 0 -6 9 -9 20 -3 11 -1 20 4 20 5 0 9 -9 9 -20z m-3 -802 c-3 -8 -6 -5
-6 6 -1 11 2 17 5 13 3 -3 4 -12 1 -19z m3 -269 c0 -22 -4 -38 -8 -35 -8 5 -4
76 4 76 2 0 4 -18 4 -41z m-3 -71 c-3 -8 -6 -5 -6 6 -1 11 2 17 5 13 3 -3 4
-12 1 -19z m8914 -80 c-3 -21 -6 -26 -9 -15 -3 17 3 47 11 47 2 0 1 -15 -2
-32z m-8914 -10 c-3 -8 -6 -5 -6 6 -1 11 2 17 5 13 3 -3 4 -12 1 -19z m8910
-70 c-3 -7 -5 -2 -5 12 0 14 2 19 5 13 2 -7 2 -19 0 -25z m-8910 -80 c-3 -8
-6 -5 -6 6 -1 11 2 17 5 13 3 -3 4 -12 1 -19z m0 -240 c-3 -7 -5 -2 -5 12 0
14 2 19 5 13 2 -7 2 -19 0 -25z m8910 -350 c-3 -7 -5 -2 -5 12 0 14 2 19 5 13
2 -7 2 -19 0 -25z m-8910 -160 c-3 -8 -6 -5 -6 6 -1 11 2 17 5 13 3 -3 4 -12
1 -19z m8910 0 c-3 -8 -6 -5 -6 6 -1 11 2 17 5 13 3 -3 4 -12 1 -19z m-8910
-65 c-3 -10 -5 -4 -5 12 0 17 2 24 5 18 2 -7 2 -21 0 -30z m10 -200 c0 -29 -1
-33 -7 -18 -11 26 -12 55 -2 55 4 0 8 -17 9 -37z m54 -401 c-5 -10 -18 -25
-28 -33 -16 -13 -17 -12 -4 4 7 9 10 17 6 17 -4 0 -2 7 5 15 18 21 33 19 21
-3z m16 -154 c-3 -7 -5 -2 -5 12 0 14 2 19 5 13 2 -7 2 -19 0 -25z m-71 -59
c1 -35 1 -37 -3 -9 -3 19 -10 41 -16 49 -10 11 -9 13 3 9 10 -3 15 -19 16 -49z
m54 9 c-13 -10 -25 -16 -28 -13 -8 8 17 32 34 32 14 0 12 -4 -6 -19z m8785
-66 c-15 -16 -16 -15 -4 12 7 15 15 23 17 16 3 -7 -3 -19 -13 -28z m-8765 -12
c0 -5 -8 -10 -17 -10 -15 0 -16 2 -3 10 19 12 20 12 20 0z m-71 -87 l-2 -48
-6 40 c-7 38 -5 55 5 55 2 0 3 -21 3 -47z m57 1 c18 -14 18 -14 -6 -3 -31 14
-36 19 -24 19 6 0 19 -7 30 -16z m4 -49 c20 -24 6 -28 -15 -5 -10 11 -13 20
-8 20 6 0 16 -7 23 -15z m6 -182 c-8 -8 -12 -3 -21 27 l-7 25 17 -23 c9 -13
14 -26 11 -29z m-56 -27 c0 -3 -4 -8 -10 -11 -5 -3 -10 -1 -10 4 0 6 5 11 10
11 6 0 10 -2 10 -4z m60 -30 c0 -8 -7 -16 -15 -20 -12 -4 -13 -2 -2 14 14 24
17 25 17 6z m8847 -42 c-3 -3 -12 -4 -19 -1 -8 3 -5 6 6 6 11 1 17 -2 13 -5z
m30 -56 c-3 -8 -6 -5 -6 6 -1 11 2 17 5 13 3 -3 4 -12 1 -19z m-38 -254 c4 3
7 -10 8 -27 1 -30 1 -30 -7 -7 -7 21 -8 22 -10 5 -2 -17 -3 -16 -9 5 -8 25 -1
55 7 32 2 -7 7 -10 11 -8z m38 -26 c-3 -7 -5 -2 -5 12 0 14 2 19 5 13 2 -7 2
-19 0 -25z m-30 -80 c-3 -8 -6 -5 -6 6 -1 11 2 17 5 13 3 -3 4 -12 1 -19z
m-17 -13 c0 -8 -2 -15 -4 -15 -2 0 -6 7 -10 15 -3 8 -1 15 4 15 6 0 10 -7 10
-15z m-8900 -25 c0 -5 -2 -10 -4 -10 -3 0 -8 5 -11 10 -3 6 -1 10 4 10 6 0 11
-4 11 -10z m8930 -41 c0 -5 -4 -9 -8 -9 -5 0 -9 7 -9 15 0 8 4 12 9 9 4 -3 8
-9 8 -15z m-29 -88 c1 -34 -2 -65 -5 -68 -3 -4 -6 27 -6 67 0 40 2 71 5 68 3
-3 6 -33 6 -67z m29 -91 c0 -5 -4 -10 -10 -10 -5 0 -10 5 -10 10 0 6 5 10 10
10 6 0 10 -4 10 -10z m-20 -120 c1 8 2 19 1 23 -1 5 3 6 9 2 16 -10 13 -55 -4
-49 -8 3 -16 -2 -19 -13 -3 -10 -5 2 -5 27 0 37 1 40 8 20 5 -14 9 -18 10 -10z
m-83 -2 c-3 -8 -6 -5 -6 6 -1 11 2 17 5 13 3 -3 4 -12 1 -19z m17 -43 c3 -8 1
-15 -3 -15 -5 0 -11 7 -15 15 -3 8 -1 15 3 15 5 0 11 -7 15 -15z m86 -25 c0
-5 -5 -10 -11 -10 -5 0 -7 5 -4 10 3 6 8 10 11 10 2 0 4 -4 4 -10z m-3 -90
c-1 -10 -4 -17 -8 -14 -4 2 -12 -4 -18 -13 -9 -15 -10 -11 -11 19 0 31 3 35
19 31 11 -3 19 -13 18 -23z m-71 -58 c-4 -3 -14 2 -24 12 -16 18 -16 18 6 6
13 -6 21 -14 18 -18z m-15 -83 c-9 -22 -10 -22 -10 -3 -1 11 2 24 6 27 12 12
14 0 4 -24z m56 -31 c-3 -7 -5 -2 -5 12 0 14 2 19 5 13 2 -7 2 -19 0 -25z
m-8887 -233 c0 -14 -4 -25 -9 -25 -4 0 -6 11 -3 25 2 14 6 25 8 25 2 0 4 -11
4 -25z m8893 -35 c-3 -11 -7 -20 -9 -20 -2 0 -4 9 -4 20 0 11 4 20 9 20 5 0 7
-9 4 -20z m-8916 -152 c-3 -7 -5 -2 -5 12 0 14 2 19 5 13 2 -7 2 -19 0 -25z
m8957 -233 c-4 -8 -8 -15 -10 -15 -2 0 -4 7 -4 15 0 8 4 15 10 15 5 0 7 -7 4
-15z m-4617 -216 c2 -17 -1 -18 -12 -9 -8 7 -12 16 -9 21 9 16 20 10 21 -12z
m4580 -39 c-3 -39 -16 -39 -15 0 1 17 5 30 9 30 5 0 7 -13 6 -30z m-4517 -11
c0 -12 -19 -21 -30 -14 -6 4 -8 10 -6 14 7 10 36 10 36 0z m-3515 -9 c3 -5 2
-10 -4 -10 -5 0 -13 5 -16 10 -3 6 -2 10 4 10 5 0 13 -4 16 -10z m3590 -18
c-3 -3 -11 0 -18 7 -9 10 -8 11 6 5 10 -3 15 -9 12 -12z m4437 -34 c-9 -9 -12
-7 -12 12 0 19 3 21 12 12 9 -9 9 -15 0 -24z m-4504 -13 c-3 -3 -13 -2 -22 1
-14 5 -15 9 -4 15 13 8 36 -6 26 -16z m-4388 -29 c0 -2 -7 -9 -15 -16 -13 -11
-14 -10 -9 4 5 14 24 23 24 12z m4324 -8 c-5 -8 -1 -9 12 -4 14 5 16 4 7 -5
-13 -13 -37 -3 -28 12 4 5 8 9 11 9 3 0 2 -5 -2 -12z m273 6 c-3 -3 -12 -4
-19 -1 -8 3 -5 6 6 6 11 1 17 -2 13 -5z m-4539 -11 c-9 -2 -18 -12 -20 -21 -3
-13 -5 -12 -10 6 -5 19 -2 22 20 21 16 -1 20 -3 10 -6z m349 -35 c-3 -8 -6 -5
-6 6 -1 11 2 17 5 13 3 -3 4 -12 1 -19z m4065 -10 c-9 -9 -15 -9 -24 1 -11 11
-10 13 5 8 10 -4 17 -2 17 5 0 6 3 8 7 5 4 -4 1 -13 -5 -19z m173 2 c-3 -5
-14 -10 -23 -10 -15 0 -15 2 -2 10 20 13 33 13 25 0z m-4605 -47 c-11 -17 -11
-17 -6 0 3 10 7 26 7 35 1 15 2 15 6 0 2 -10 -1 -25 -7 -35z m8854 7 c-1 -44
-14 -50 -14 -7 0 21 3 37 8 37 4 0 7 -14 6 -30z m-8304 -5 c0 -8 -4 -15 -10
-15 -5 0 -7 7 -4 15 4 8 8 15 10 15 2 0 4 -7 4 -15z m3800 0 c0 -8 -2 -15 -4
-15 -2 0 -6 7 -10 15 -3 8 -1 15 4 15 6 0 10 -7 10 -15z m-3223 -67 c-3 -8 -6
-5 -6 6 -1 11 2 17 5 13 3 -3 4 -12 1 -19z m-767 -3 c0 -8 -4 -15 -10 -15 -5
0 -7 7 -4 15 4 8 8 15 10 15 2 0 4 -7 4 -15z m4165 -3 c-3 -3 -11 0 -18 7 -9
10 -8 11 6 5 10 -3 15 -9 12 -12z m-65 -7 c0 -8 -6 -15 -14 -15 -17 0 -28 14
-19 24 12 12 33 6 33 -9z m-2946 -3 c3 -5 -1 -9 -9 -9 -8 0 -12 4 -9 9 3 4 7
8 9 8 2 0 6 -4 9 -8z m-36 -47 c-3 -3 -9 2 -12 12 -6 14 -5 15 5 6 7 -7 10
-15 7 -18z m-1471 -3 c0 -10 -6 -19 -13 -19 -9 0 -9 5 -1 19 7 10 13 18 14 18
1 0 1 -8 0 -18z m434 5 c-7 -7 -14 -8 -21 -1 -6 6 -2 10 12 11 16 2 18 -1 9
-10z m3324 -17 c3 -5 -1 -10 -10 -10 -9 0 -13 5 -10 10 3 6 8 10 10 10 2 0 7
-4 10 -10z m-3772 -35 c-3 -9 -8 -14 -10 -11 -3 3 -2 9 2 15 9 16 15 13 8 -4z
m4027 -1 c0 -2 -9 -4 -21 -4 -11 0 -18 4 -14 10 5 8 35 3 35 -6z m123 9 c-7
-2 -19 -2 -25 0 -7 3 -2 5 12 5 14 0 19 -2 13 -5z m-489 -29 c3 -8 2 -12 -4
-9 -6 3 -10 10 -10 16 0 14 7 11 14 -7z m-314 -21 c-24 -17 -33 -13 -25 9 4
10 14 14 26 11 19 -5 19 -6 -1 -20z m621 4 c-8 -8 -14 -7 -23 2 -10 11 -10 13
0 7 6 -4 12 -2 12 4 0 6 5 8 11 4 8 -4 8 -9 0 -17z m-466 3 c3 -5 -1 -10 -9
-10 -9 0 -16 -5 -16 -12 0 -6 -2 -9 -5 -6 -7 7 5 38 15 38 5 0 12 -4 15 -10z
m-3470 -10 c-3 -5 -12 -10 -18 -10 -7 0 -6 4 3 10 19 12 23 12 15 0z m4260 0
c3 -5 1 -10 -4 -10 -6 0 -11 5 -11 10 0 6 2 10 4 10 3 0 8 -4 11 -10z m-905
-20 c0 -5 -10 -10 -22 -9 -22 0 -22 1 -3 9 11 5 21 9 23 9 1 1 2 -3 2 -9z
m475 -18 c-8 -8 -25 10 -19 20 4 6 9 5 15 -3 4 -7 6 -15 4 -17z m165 18 c0 -5
-4 -10 -10 -10 -5 0 -10 5 -10 10 0 6 5 10 10 10 6 0 10 -4 10 -10z m-710 -19
c0 -13 -12 -20 -25 -14 -8 2 -11 11 -9 18 6 14 34 10 34 -4z m130 10 c0 -5 -9
-11 -21 -14 -16 -4 -18 -3 -8 9 13 16 29 19 29 5z m5407 -23 c-3 -7 -5 -2 -5
12 0 14 2 19 5 13 2 -7 2 -19 0 -25z m-4897 7 c0 -8 -7 -15 -15 -15 -26 0 -18
20 13 29 1 1 2 -6 2 -14z m-3395 -5 c3 -6 -1 -7 -9 -4 -18 7 -21 14 -7 14 6 0
13 -4 16 -10z m961 1 c9 7 14 8 14 1 0 -6 -6 -12 -12 -15 -19 -6 -39 4 -31 16
5 8 8 7 11 -1 3 -10 7 -10 18 -1z m1722 -18 c-1 -10 1 -25 6 -33 5 -8 -1 -5
-14 6 -12 12 -19 27 -16 33 11 17 28 13 24 -6z m527 -5 c6 -4 2 -8 -7 -8 -10
0 -18 7 -18 17 0 9 3 12 8 7 4 -5 12 -12 17 -16z m129 10 c-3 -4 -12 -8 -20
-8 -8 0 -14 4 -14 8 0 4 9 8 19 8 11 0 17 -4 15 -8z m321 2 c-3 -5 -12 -10
-18 -10 -7 0 -6 4 3 10 19 12 23 12 15 0z m-945 -10 c0 -5 -5 -10 -11 -10 -5
0 -7 5 -4 10 3 6 8 10 11 10 2 0 4 -4 4 -10z m550 -1 c0 8 3 12 6 8 10 -10 -6
-26 -21 -21 -8 4 -12 11 -9 16 4 6 10 5 15 -3 7 -12 9 -12 9 0z m-520 -9 c0
-5 -4 -10 -10 -10 -5 0 -10 5 -10 10 0 6 5 10 10 10 6 0 10 -4 10 -10z m75 0
c3 -5 -1 -10 -9 -10 -9 0 -16 5 -16 10 0 6 4 10 9 10 6 0 13 -4 16 -10z m635
2 c0 -5 -7 -9 -15 -9 -8 0 -15 4 -15 9 0 4 7 8 15 8 8 0 15 -4 15 -8z m4843
-12 c3 -11 1 -18 -4 -14 -5 3 -9 12 -9 20 0 20 7 17 13 -6z m-4923 -31 c0 -5
-4 -9 -10 -9 -5 0 -10 7 -10 16 0 8 5 12 10 9 6 -3 10 -10 10 -16z m297 15
c-3 -3 -12 -4 -19 -1 -8 3 -5 6 6 6 11 1 17 -2 13 -5z m-1000 -39 c-7 -17 -27
-21 -27 -4 0 5 5 7 10 4 6 -3 10 2 10 11 0 10 3 15 6 11 4 -3 4 -13 1 -22z
m253 3 c0 -5 -9 -4 -20 2 -11 6 -20 12 -20 14 0 2 9 2 20 -1 11 -3 20 -9 20
-15z m380 12 c0 -5 -7 -10 -15 -10 -8 0 -15 5 -15 10 0 6 7 10 15 10 8 0 15
-4 15 -10z m327 -16 c-3 -3 -12 -4 -19 -1 -8 3 -5 6 6 6 11 1 17 -2 13 -5z
m-477 -20 c0 -2 -9 -4 -21 -4 -11 0 -18 4 -14 10 5 8 35 3 35 -6z m376 1 c14
-13 13 -15 -10 -15 -25 0 -33 10 -19 23 9 10 13 9 29 -8z m-3636 -15 c0 -5 -4
-10 -10 -10 -5 0 -10 5 -10 10 0 6 5 10 10 10 6 0 10 -4 10 -10z m2737 -12
c-3 -8 -6 -5 -6 6 -1 11 2 17 5 13 3 -3 4 -12 1 -19z m935 -20 c-9 -9 -12 -7
-12 12 0 19 3 21 12 12 9 -9 9 -15 0 -24z m-2385 -4 c-3 -4 -14 -3 -24 0 -15
6 -15 8 -3 16 16 10 39 -4 27 -16z m2493 16 c0 -5 -7 -7 -15 -4 -8 4 -15 8
-15 10 0 2 7 4 15 4 8 0 15 -4 15 -10z m114 -6 c3 -8 2 -12 -4 -9 -6 3 -10 10
-10 16 0 14 7 11 14 -7z m-257 -16 c-3 -8 -6 -5 -6 6 -1 11 2 17 5 13 3 -3 4
-12 1 -19z m-3872 2 c-3 -5 -2 -10 4 -10 5 0 12 6 14 13 3 7 6 5 6 -5 1 -10
-5 -18 -13 -18 -17 0 -28 14 -19 24 10 9 15 7 8 -4z m3581 -15 c-6 -18 -26
-11 -26 8 0 7 4 6 10 -3 8 -13 10 -12 10 4 0 11 3 17 6 13 4 -3 4 -13 0 -22z
m-643 -6 c-4 -15 -8 -17 -14 -8 -8 14 -3 29 11 29 4 0 6 -9 3 -21z m777 13 c0
-5 -7 -9 -15 -9 -8 0 -12 4 -9 9 3 4 9 8 15 8 5 0 9 -4 9 -8z m240 -4 c0 -4
-9 -8 -20 -8 -11 0 -20 4 -20 9 0 6 9 9 20 8 11 -1 20 -5 20 -9z m-4015 -26
c-8 -8 -25 10 -19 20 4 6 9 5 15 -3 4 -7 6 -15 4 -17z m8695 2 c0 -8 -4 -12
-10 -9 -5 3 -10 13 -10 21 0 8 5 12 10 9 6 -3 10 -13 10 -21z m-8540 2 c0 -3
-4 -8 -10 -11 -5 -3 -10 -1 -10 4 0 6 5 11 10 11 6 0 10 -2 10 -4z m1494 -12
c3 -8 2 -12 -4 -9 -6 3 -10 10 -10 16 0 14 7 11 14 -7z m1496 6 c0 -5 -2 -10
-4 -10 -3 0 -8 5 -11 10 -3 6 -1 10 4 10 6 0 11 -4 11 -10z m677 -16 c-9 -9
-28 6 -21 18 4 6 10 6 17 -1 6 -6 8 -13 4 -17z m98 16 c-3 -5 -10 -10 -16 -10
-5 0 -9 5 -9 10 0 6 7 10 16 10 8 0 12 -4 9 -10z m160 -8 c-3 -3 -11 0 -18 7
-9 10 -8 11 6 5 10 -3 15 -9 12 -12z m-2564 -17 c5 4 9 1 9 -4 0 -6 -9 -11
-20 -11 -22 0 -23 1 -13 27 7 17 8 17 11 0 2 -9 8 -15 13 -12z m2509 10 c0
-12 -19 -12 -23 0 -4 9 -1 12 9 8 7 -3 14 -7 14 -8z m-2415 -13 c-3 -3 -11 0
-18 7 -9 10 -8 11 6 5 10 -3 15 -9 12 -12z m2456 8 c10 -6 19 -15 19 -20 0
-17 -25 -11 -38 10 -14 22 -9 25 19 10z m-1000 -9 c6 10 9 10 9 2 0 -7 -9 -17
-20 -23 -22 -12 -23 -10 -13 16 5 13 8 14 11 5 4 -11 6 -11 13 0z m189 -7 c0
-2 -7 -4 -15 -4 -8 0 -15 4 -15 10 0 5 7 7 15 4 8 -4 15 -8 15 -10z m185 -5
c-10 -15 -25 -10 -19 6 4 8 10 12 15 9 5 -3 7 -10 4 -15z m277 7 c7 4 8 2 4
-5 -9 -13 -26 -5 -25 12 0 9 2 8 6 -1 2 -6 10 -9 15 -6z m65 8 c-3 -3 -12 -4
-19 -1 -8 3 -5 6 6 6 11 1 17 -2 13 -5z m4905 -26 c-7 -7 -12 -8 -12 -2 0 14
12 26 19 19 2 -3 -1 -11 -7 -17z m-8259 -9 c-6 -6 -17 -8 -24 -3 -9 5 -8 9 7
14 23 9 31 3 17 -11z m1182 11 c3 -5 -1 -10 -9 -10 -9 0 -16 5 -16 10 0 6 4
10 9 10 6 0 13 -4 16 -10z m2355 0 c0 -5 -7 -10 -16 -10 -8 0 -12 5 -9 10 3 6
10 10 16 10 5 0 9 -4 9 -10z m-3407 -31 c-8 -8 -16 -8 -30 1 -16 10 -16 11 5
6 19 -4 22 -1 17 12 -5 14 -4 15 6 5 10 -10 10 -16 2 -24z m1002 11 c-3 -5 1
-10 9 -10 9 0 16 -4 16 -9 0 -11 -19 -9 -38 2 -13 9 -7 27 9 27 6 0 7 -4 4
-10z m1785 0 c0 -5 -5 -10 -11 -10 -5 0 -7 5 -4 10 3 6 8 10 11 10 2 0 4 -4 4
-10z m700 -7 c0 -10 -4 -14 -8 -8 -4 6 -11 13 -16 18 -5 4 -2 7 7 7 10 0 17
-8 17 -17z m-2390 3 c0 -3 -4 -8 -10 -11 -5 -3 -10 -1 -10 4 0 6 5 11 10 11 6
0 10 -2 10 -4z m1321 -10 c5 3 9 1 9 -5 0 -5 -4 -13 -10 -16 -5 -3 -10 -4 -10
-1 0 2 -2 10 -3 18 -2 7 -2 10 0 5 3 -4 9 -5 14 -1z m63 8 c17 -7 22 -34 6
-34 -5 0 -10 6 -10 14 0 8 -6 17 -12 19 -7 3 -10 6 -6 6 3 1 13 -2 22 -5z
m516 -10 c0 -2 -9 -4 -21 -4 -11 0 -18 4 -14 10 5 8 35 3 35 -6z m-350 -9 c0
-8 -4 -15 -10 -15 -5 0 -7 7 -4 15 4 8 8 15 10 15 2 0 4 -7 4 -15z m885 -4
c-8 -14 -25 -14 -25 0 0 5 5 7 10 4 6 -3 10 -1 10 6 0 7 3 10 6 6 3 -3 3 -10
-1 -16z m-2485 -32 c0 -5 -9 -9 -20 -9 -19 0 -26 11 -14 23 8 8 34 -3 34 -14z
m1800 11 c0 -5 -5 -10 -11 -10 -5 0 -7 5 -4 10 3 6 8 10 11 10 2 0 4 -4 4 -10z
m-475 -11 c-7 -11 -35 -12 -35 -1 0 4 9 8 20 9 11 1 18 -2 15 -8z m-1413 -6
c-8 -3 -5 -11 10 -24 23 -19 23 -19 -9 -2 -32 18 -35 34 -5 32 11 0 12 -2 4
-6z m1628 -3 c0 -5 -2 -10 -4 -10 -3 0 -8 5 -11 10 -3 6 -1 10 4 10 6 0 11 -4
11 -10z m705 -20 c-3 -5 -10 -10 -16 -10 -5 0 -9 5 -9 10 0 6 7 10 16 10 8 0
12 -4 9 -10z m-733 -14 c6 4 9 1 7 -5 -7 -19 -24 -14 -26 6 -2 10 0 12 3 5 3
-6 10 -9 16 -6z m638 -16 c0 -5 -4 -10 -9 -10 -6 0 -13 5 -16 10 -3 6 1 10 9
10 9 0 16 -4 16 -10z m-2259 -14 c5 3 9 1 9 -4 0 -14 -28 -23 -35 -12 -4 6 -3
15 1 22 6 9 9 9 12 0 2 -7 8 -10 13 -6z m2466 -12 c-9 -9 -28 6 -21 18 4 6 10
6 17 -1 6 -6 8 -13 4 -17z m-2284 -2 c-7 -16 -35 -12 -40 5 -3 8 4 12 20 11
16 -1 23 -7 20 -16z m2134 3 c0 -9 -17 -12 -47 -6 -3 1 1 5 8 9 18 12 39 11
39 -3z m-3779 -16 c3 -11 2 -11 -7 1 -10 13 -12 13 -21 0 -5 -8 -10 -10 -10
-4 0 27 31 30 38 3z m57 11 c-3 -5 -1 -10 5 -10 6 0 8 -5 5 -10 -5 -8 -11 -7
-21 1 -14 12 -10 29 7 29 6 0 7 -4 4 -10z m3899 -6 c3 -8 2 -12 -4 -9 -6 3
-10 10 -10 16 0 14 7 11 14 -7z m-1161 -37 c-5 -8 -43 10 -43 22 0 4 3 11 7
14 8 9 42 -25 36 -36z m728 20 c-10 -9 -11 -8 -5 6 3 10 9 15 12 12 3 -3 0
-11 -7 -18z m334 13 c-3 -5 -10 -10 -16 -10 -5 0 -9 5 -9 10 0 6 7 10 16 10 8
0 12 -4 9 -10z m-2355 -22 c0 -5 5 -6 10 -3 6 3 10 1 10 -4 0 -16 -16 -13 -34
5 -20 19 -20 25 -1 18 8 -4 15 -10 15 -16z m1550 12 c0 -5 -2 -10 -4 -10 -3 0
-8 5 -11 10 -3 6 -1 10 4 10 6 0 11 -4 11 -10z m5640 0 c0 -5 -5 -10 -11 -10
-5 0 -7 5 -4 10 3 6 8 10 11 10 2 0 4 -4 4 -10z m-6021 -36 c-17 -20 -39 -17
-39 5 0 23 20 32 38 18 9 -7 9 -13 1 -23z m641 15 c0 -6 -4 -7 -10 -4 -5 3
-10 11 -10 16 0 6 5 7 10 4 6 -3 10 -11 10 -16z m-122 -6 c-4 -24 -38 -30 -38
-8 0 15 2 16 17 4 15 -12 16 -12 10 4 -3 9 -2 17 4 17 6 0 9 -8 7 -17z m702 8
c0 -6 -4 -13 -10 -16 -5 -3 -10 1 -10 9 0 9 5 16 10 16 6 0 10 -4 10 -9z
m-4000 -11 c0 -5 -5 -10 -11 -10 -5 0 -7 5 -4 10 3 6 8 10 11 10 2 0 4 -4 4
-10z m1744 -2 c-5 -7 -2 -9 7 -6 10 4 15 -1 15 -12 0 -12 -5 -16 -16 -12 -22
8 -31 25 -17 34 17 11 19 10 11 -4z m-1639 -8 c-3 -5 -2 -10 4 -10 5 0 12 6
14 13 4 9 6 9 6 0 1 -16 -14 -24 -33 -17 -16 6 -13 24 5 24 6 0 7 -4 4 -10z
m3096 -23 c-16 -16 -25 -1 -10 16 8 8 16 11 18 5 2 -5 -2 -15 -8 -21z m520 10
c-10 -9 -11 -8 -5 6 3 10 9 15 12 12 3 -3 0 -11 -7 -18z m-1916 4 c-3 -5 3
-11 12 -13 12 -2 14 -6 7 -10 -6 -4 -19 1 -29 12 -17 19 -17 20 -1 20 9 0 15
-4 11 -9z m1565 4 c0 -7 -30 -13 -34 -7 -3 4 4 9 15 9 10 1 19 0 19 -2z m130
-7 c0 -4 -4 -8 -9 -8 -6 0 -12 4 -15 8 -3 5 1 9 9 9 8 0 15 -4 15 -9z m62 -10
c-7 -7 -12 -8 -12 -2 0 14 12 26 19 19 2 -3 -1 -11 -7 -17z m62 7 c-4 -8 -8
-15 -10 -15 -2 0 -4 7 -4 15 0 8 4 15 10 15 5 0 7 -7 4 -15z m226 0 c7 -8 8
-15 2 -15 -5 0 -15 7 -22 15 -7 8 -8 15 -2 15 5 0 15 -7 22 -15z m4912 -10
c-2 -14 -6 -25 -8 -25 -2 0 -4 11 -4 25 0 14 4 25 9 25 4 0 6 -11 3 -25z m55
-12 c-3 -10 -5 -4 -5 12 0 17 2 24 5 18 2 -7 2 -21 0 -30z m-5947 16 c0 -4 -9
-9 -20 -12 -13 -3 -20 0 -20 8 0 8 9 13 20 12 11 -1 20 -4 20 -8z m1097 -23
c-10 -11 -17 -12 -25 -4 -8 8 -5 14 11 23 26 13 35 1 14 -19z m-4087 -13 c0
-24 -3 -33 -8 -25 -5 7 -7 23 -6 35 3 27 3 27 9 27 3 0 5 -17 5 -37z m1289 -6
c-6 -10 -17 -17 -25 -15 -22 4 -18 22 5 26 14 2 18 9 15 20 -5 14 -4 14 4 3 7
-10 7 -21 1 -34z m79 38 c-3 -3 -18 -8 -34 -11 -22 -3 -25 -2 -14 6 15 10 58
14 48 5z m45 -23 c-5 -22 -27 -30 -38 -13 -3 5 4 12 15 16 11 3 20 11 20 17 0
6 2 9 5 7 2 -3 2 -15 -2 -27z m1987 14 c0 -3 -4 -8 -10 -11 -5 -3 -10 -1 -10
4 0 6 5 11 10 11 6 0 10 -2 10 -4z m147 -2 c-3 -3 -12 -4 -19 -1 -8 3 -5 6 6
6 11 1 17 -2 13 -5z m-177 -14 c0 -5 -4 -10 -10 -10 -5 0 -10 5 -10 10 0 6 5
10 10 10 6 0 10 -4 10 -10z m400 -3 c-14 -6 -28 -16 -32 -22 -5 -6 -8 -5 -8 3
0 7 10 17 23 22 32 13 46 11 17 -3z m-2566 -12 c-10 -7 -22 -11 -27 -8 -12 7
0 19 23 20 21 2 21 1 4 -12z m2426 4 c0 -4 -7 -9 -15 -13 -9 -3 -15 0 -15 8 0
7 7 13 15 13 8 0 15 -4 15 -8z m-2310 -9 c0 -5 -5 -10 -11 -10 -5 0 -7 5 -4
10 3 6 8 10 11 10 2 0 4 -4 4 -10z m2650 -9 c0 -14 -12 -20 -26 -14 -22 8 -17
32 6 26 11 -3 20 -9 20 -12z m-3800 -8 c0 -15 -2 -16 -10 -3 -6 10 -10 11 -10
3 0 -7 -8 -13 -17 -13 -15 0 -14 2 3 15 25 19 34 19 34 -2z m3708 0 c-2 -10
-9 -18 -16 -18 -7 0 -17 -6 -21 -14 -5 -7 -14 -10 -21 -6 -8 5 -5 13 9 27 12
10 26 16 33 12 7 -4 8 -3 4 4 -4 7 -2 12 4 12 6 0 10 -8 8 -17z m-3604 -9 c3
-8 2 -12 -4 -9 -6 3 -10 10 -10 16 0 14 7 11 14 -7z m1084 -4 c-7 -11 -19 -19
-26 -18 -21 5 -15 22 10 30 13 3 24 6 26 7 1 1 -3 -8 -10 -19z m2412 5 c0 -8
-7 -15 -15 -15 -8 0 -15 5 -15 11 0 5 5 7 10 4 6 -3 10 -1 10 4 0 6 2 11 5 11
3 0 5 -7 5 -15z m-93 -1 c-3 -3 -12 -4 -19 -1 -8 3 -5 6 6 6 11 1 17 -2 13 -5z
m5210 -25 c2 -12 -1 -18 -7 -14 -5 3 -10 16 -10 27 0 26 13 16 17 -13z m-8887
-4 c0 -8 -7 -15 -15 -15 -9 0 -12 6 -9 15 4 8 10 15 15 15 5 0 9 -7 9 -15z
m293 -6 c-6 -6 -17 -8 -24 -3 -9 5 -8 9 7 14 23 9 31 3 17 -11z m41 -1 c-5 -8
-2 -9 9 -5 19 7 23 -8 6 -19 -14 -8 -33 11 -25 25 4 6 9 11 12 11 3 0 2 -5 -2
-12z m3306 2 c0 -5 -2 -10 -4 -10 -3 0 -8 5 -11 10 -3 6 -1 10 4 10 6 0 11 -4
11 -10z m100 -31 c0 -12 -5 -16 -15 -13 -8 4 -15 12 -15 18 0 7 7 13 15 13 8
0 15 -8 15 -18z m54 -11 c-8 -29 -11 -31 -23 -24 -6 4 -4 14 7 26 23 24 25 24
16 -2z m-2798 -8 c8 0 14 -4 14 -10 0 -5 -4 -10 -10 -10 -5 0 -13 -1 -17 -2
-3 -2 -7 8 -9 22 -1 14 0 19 2 13 3 -7 12 -13 20 -13z m2864 -2 c0 -18 -2 -20
-9 -8 -6 8 -7 18 -5 22 9 14 14 9 14 -14z m5040 -24 c0 -2 -7 -4 -15 -4 -8 0
-15 4 -15 10 0 5 7 7 15 4 8 -4 15 -8 15 -10z m-5193 -16 c-3 -8 -6 -5 -6 6
-1 11 2 17 5 13 3 -3 4 -12 1 -19z m-3640 -20 c-3 -7 -5 -2 -5 12 0 14 2 19 5
13 2 -7 2 -19 0 -25z m3623 16 c0 -8 -5 -12 -10 -9 -6 4 -8 11 -5 16 9 14 15
11 15 -7z m207 -16 c-3 -8 -6 -5 -6 6 -1 11 2 17 5 13 3 -3 4 -12 1 -19z
m4996 -23 c-6 -17 -23 -20 -23 -5 0 6 5 10 11 10 5 0 7 5 3 12 -4 7 -3 8 4 4
6 -4 9 -13 5 -21z m-8826 -57 c-2 -13 -4 -3 -4 22 0 25 2 35 4 23 2 -13 2 -33
0 -45z m353 52 c0 -5 -4 -10 -10 -10 -5 0 -10 5 -10 10 0 6 5 10 10 10 6 0 10
-4 10 -10z m1690 -19 c0 -12 -9 -20 -25 -23 -29 -6 -32 4 -8 23 11 10 14 10 9
2 -4 -7 -2 -13 3 -13 6 0 11 7 11 15 0 8 2 15 5 15 3 0 5 -8 5 -19z m6820 15
c0 -3 -4 -8 -10 -11 -5 -3 -10 -1 -10 4 0 6 5 11 10 11 6 0 10 -2 10 -4z
m-5170 -30 c0 -14 -29 -31 -38 -21 -6 6 18 35 29 35 5 0 9 -6 9 -14z m-1810
-8 c0 -9 4 -8 10 2 8 13 10 12 10 -2 0 -11 -8 -18 -19 -18 -21 0 -34 13 -24
24 10 10 23 7 23 -6z m80 2 c0 -5 -6 -10 -12 -10 -9 0 -8 -4 2 -10 8 -5 10
-10 4 -10 -16 0 -23 10 -17 26 6 16 23 19 23 4z m139 -12 c-11 -21 -11 -22 4
-9 11 8 17 9 17 3 0 -6 -9 -16 -20 -22 -11 -6 -20 -17 -20 -24 0 -18 -30 -30
-43 -17 -6 6 -3 18 7 33 l17 23 -7 -27 c-9 -41 1 -34 25 17 12 25 23 45 26 45
3 0 0 -10 -6 -22z m1491 18 c0 -3 -4 -8 -10 -11 -5 -3 -10 -1 -10 4 0 6 5 11
10 11 6 0 10 -2 10 -4z m174 -5 c3 -5 0 -11 -8 -14 -15 -6 -26 1 -26 15 0 11
27 10 34 -1z m-140 -20 c3 -5 -1 -12 -10 -15 -22 -9 -24 -8 -24 9 0 16 25 21
34 6z m-2529 -62 c-3 -4 -12 -6 -20 -3 -8 4 -13 10 -10 15 3 4 12 6 20 3 8 -4
13 -10 10 -15z m2335 11 c0 -5 -2 -10 -4 -10 -3 0 -8 5 -11 10 -3 6 -1 10 4
10 6 0 11 -4 11 -10z m-3515 -10 c3 -5 1 -10 -5 -10 -6 0 -8 -5 -4 -12 4 -7 3
-8 -4 -4 -14 9 -16 36 -3 36 6 0 13 -4 16 -10z m2240 -10 c0 -7 -6 -14 -13
-16 -7 -1 -8 0 -2 3 17 8 11 23 -7 16 -11 -4 -14 -3 -9 6 10 15 31 9 31 -9z
m85 5 c0 -8 -6 -15 -14 -15 -17 0 -28 14 -19 24 12 12 33 6 33 -9z m6625 -5
c-3 -5 -12 -10 -18 -10 -7 0 -6 4 3 10 19 12 23 12 15 0z m-5407 -17 c-4 -20
-38 -31 -38 -13 0 6 5 8 10 5 6 -3 10 1 10 9 0 9 5 16 11 16 6 0 9 -8 7 -17z
m102 -3 c0 -11 -7 -20 -15 -20 -8 0 -15 7 -15 16 0 8 5 12 10 9 6 -3 10 -1 10
4 0 6 2 11 5 11 3 0 5 -9 5 -20z m190 3 c0 -5 -5 -15 -10 -23 -8 -13 -12 -12
-27 4 -10 10 -13 16 -6 12 6 -3 14 -2 18 4 7 12 25 14 25 3z m-1660 -7 c0 -2
-7 -9 -15 -16 -13 -11 -14 -10 -9 4 5 14 24 23 24 12z m1074 -34 c-9 -2 -20 2
-25 9 -13 22 1 29 22 11 18 -15 18 -17 3 -20z m5656 18 c0 -5 -4 -10 -10 -10
-5 0 -10 5 -10 10 0 6 5 10 10 10 6 0 10 -4 10 -10z m-7530 -12 c0 -11 -29
-23 -36 -15 -3 3 -4 10 0 15 7 11 36 11 36 0z m95 2 c3 -5 1 -10 -4 -10 -6 0
-11 5 -11 10 0 6 2 10 4 10 3 0 8 -4 11 -10z m735 -10 c0 -5 -13 -16 -30 -25
-31 -16 -41 -7 -15 15 8 6 20 8 26 4 9 -5 10 -2 6 10 -4 10 -3 15 3 11 6 -3
10 -10 10 -15z m1003 1 c3 -13 0 -18 -12 -16 -9 2 -19 4 -23 4 -5 1 -8 6 -8
12 0 6 7 9 15 5 8 -3 15 -1 15 4 0 17 7 11 13 -9z m149 -3 c-12 -12 -35 -1
-27 12 3 5 13 6 21 3 10 -4 12 -9 6 -15z m-1292 2 c0 -5 -5 -10 -11 -10 -5 0
-7 5 -4 10 3 6 8 10 11 10 2 0 4 -4 4 -10z m203 -24 c4 4 7 2 7 -5 0 -17 -29
-26 -43 -12 -8 8 -8 11 2 11 8 0 10 8 6 23 l-6 22 14 -23 c7 -12 16 -19 20
-16z m-844 15 c9 -6 10 -10 2 -16 -16 -9 -44 2 -36 15 8 12 16 12 34 1z
m-1028 -11 c9 13 10 13 6 0 -6 -22 -37 -25 -37 -3 0 15 2 16 10 3 9 -13 11
-13 21 0z m1730 -13 c-10 -9 -11 -8 -5 6 3 10 9 15 12 12 3 -3 0 -11 -7 -18z
m186 17 c-3 -3 -12 -4 -19 -1 -8 3 -5 6 6 6 11 1 17 -2 13 -5z m6593 2 c0 -3
-4 -8 -10 -11 -5 -3 -10 -1 -10 4 0 6 5 11 10 11 6 0 10 -2 10 -4z m-6830 -15
c0 -15 -19 -23 -38 -16 -14 5 -14 7 -2 15 19 12 40 13 40 1z m1220 0 c0 -5 -9
-11 -20 -14 -13 -3 -20 0 -20 9 0 8 9 14 20 14 11 0 20 -4 20 -9z m117 2 c-9
-2 -15 -9 -12 -14 3 -5 -1 -6 -9 -3 -22 8 -10 24 17 23 17 -1 18 -2 4 -6z
m263 -4 c0 -4 -7 -10 -16 -13 -8 -3 -12 -10 -9 -16 3 -5 1 -10 -5 -10 -7 0 -9
7 -6 16 3 9 6 19 6 23 0 4 7 8 15 8 8 0 15 -4 15 -8z m-2295 -9 c3 -5 1 -10
-4 -10 -6 0 -11 5 -11 10 0 6 2 10 4 10 3 0 8 -4 11 -10z m835 6 c0 -3 -4 -8
-10 -11 -5 -3 -10 -1 -10 4 0 6 5 11 10 11 6 0 10 -2 10 -4z m1534 -18 c-5 -8
-1 -9 12 -4 14 5 16 4 7 -5 -13 -13 -37 -3 -28 12 4 5 8 9 11 9 3 0 2 -5 -2
-12z m-369 -8 c3 -6 -1 -7 -9 -4 -18 7 -21 14 -7 14 6 0 13 -4 16 -10z m5518
-5 c4 -8 2 -17 -3 -20 -6 -4 -10 3 -10 14 0 25 6 27 13 6z m-8459 -7 c-5 -7
-2 -9 9 -5 10 4 14 2 11 -7 -7 -18 -32 -16 -29 3 5 22 4 21 11 21 3 0 2 -5 -2
-12z m3251 2 c3 -5 -1 -10 -9 -10 -9 0 -16 5 -16 10 0 6 4 10 9 10 6 0 13 -4
16 -10z m-1485 -10 c0 -5 -5 -10 -11 -10 -5 0 -7 5 -4 10 3 6 8 10 11 10 2 0
4 -4 4 -10z m170 -6 c0 -2 -9 -4 -20 -4 -11 0 -20 4 -20 9 0 5 9 7 20 4 11 -3
20 -7 20 -9z m997 0 c-3 -3 -12 -4 -19 -1 -8 3 -5 6 6 6 11 1 17 -2 13 -5z
m-1660 -36 c-3 -7 -5 -2 -5 12 0 14 2 19 5 13 2 -7 2 -19 0 -25z m928 22 c3
-5 -1 -10 -10 -10 -9 0 -13 5 -10 10 3 6 8 10 10 10 2 0 7 -4 10 -10z m-2284
-14 c5 3 9 0 9 -6 0 -15 -23 -7 -26 8 -1 7 0 8 3 2 2 -5 9 -8 14 -4z m8536
-38 c-2 -13 -4 -5 -4 17 -1 22 1 32 4 23 2 -10 2 -28 0 -40z m-6529 25 c-2
-10 -10 -18 -18 -18 -8 0 -17 -3 -20 -6 -3 -4 -12 0 -20 9 -13 14 -12 15 3 9
11 -4 20 -1 23 8 9 21 36 19 32 -2z m42 -1 c0 -10 6 -24 12 -30 10 -10 10 -15
-2 -22 -20 -13 -40 -13 -40 0 0 6 5 10 11 10 7 0 10 12 7 30 -3 17 -1 30 4 30
4 0 8 -8 8 -18z m-234 -18 c14 20 14 20 14 0 0 -15 2 -16 9 -5 6 10 8 2 6 -22
-3 -35 7 -50 18 -27 3 6 4 5 3 -2 -1 -7 -10 -14 -19 -16 -13 -3 -17 4 -17 27
0 24 -3 29 -16 24 -17 -6 -34 12 -33 37 0 8 5 4 10 -10 10 -24 11 -24 25 -6z
m481 11 c8 -22 4 -24 -56 -31 -47 -5 -52 -3 -49 12 4 24 23 28 41 9 20 -19 31
-19 24 -1 -5 13 5 23 26 25 4 1 10 -6 14 -14z m-897 -16 c0 -6 -4 -7 -10 -4
-5 3 -10 11 -10 16 0 6 5 7 10 4 6 -3 10 -11 10 -16z m365 11 c3 -5 2 -10 -4
-10 -5 0 -13 5 -16 10 -3 6 -2 10 4 10 5 0 13 -4 16 -10z m338 -24 c-3 -4 -9
-2 -14 5 -13 22 -11 31 5 17 8 -7 12 -17 9 -22z m77 -2 c0 -2 -7 -4 -15 -4 -8
0 -15 4 -15 10 0 5 7 7 15 4 8 -4 15 -8 15 -10z m260 -5 c0 -5 6 -7 13 -3 9 5
9 4 0 -6 -13 -14 -48 -6 -38 10 8 13 25 13 25 -1z m-222 -46 c-15 -18 -33 -11
-34 14 -1 19 2 20 22 11 19 -9 21 -14 12 -25z m-229 7 c14 7 24 2 47 -23 16
-17 19 -24 8 -14 -12 10 -25 17 -30 16 -31 -5 -54 3 -53 19 0 10 3 12 6 5 3
-9 10 -10 22 -3z m86 -4 c16 6 29 -12 15 -21 -13 -8 -50 12 -50 27 0 9 3 9 11
1 6 -6 17 -9 24 -7z m236 -5 c18 -16 18 -19 4 -31 -19 -16 -30 -6 -30 26 -1
29 0 29 26 5z m-44 -17 c2 -13 1 -15 -4 -4 -3 8 -11 19 -17 23 -7 6 -6 7 4 4
8 -2 16 -12 17 -23z m137 14 c-3 -4 -12 -8 -20 -8 -16 0 -19 -16 -4 -25 12 -8
13 -25 1 -25 -13 0 -22 30 -16 51 3 10 14 17 25 16 10 -1 16 -5 14 -9z m-474
-8 c0 -5 -4 -10 -10 -10 -5 0 -10 5 -10 10 0 6 5 10 10 10 6 0 10 -4 10 -10z
m-2270 -12 c0 -4 -6 -8 -14 -8 -8 0 -17 4 -20 8 -2 4 4 8 15 8 10 0 19 -4 19
-8z m2227 -6 c20 -13 -2 -35 -26 -27 -18 5 -20 9 -10 21 13 16 19 17 36 6z
m358 -2 c-3 -5 -15 -10 -26 -10 -11 0 -17 5 -14 10 3 6 15 10 26 10 11 0 17
-4 14 -10z m-120 -20 c3 -5 1 -10 -4 -10 -6 0 -11 5 -11 10 0 6 2 10 4 10 3 0
8 -4 11 -10z m318 -3 c4 3 7 -1 7 -9 0 -20 -27 -31 -48 -19 -16 9 -16 10 0 16
10 4 15 12 11 19 -4 7 -1 7 9 -1 8 -7 18 -10 21 -6z m-473 -17 c0 -5 -9 -10
-20 -10 -11 0 -20 5 -20 10 0 6 9 10 20 10 11 0 20 -4 20 -10z m130 0 c0 -5
-2 -10 -4 -10 -3 0 -8 5 -11 10 -3 6 -1 10 4 10 6 0 11 -4 11 -10z m75 0 c-3
-5 -2 -10 3 -10 6 0 12 -7 15 -14 4 -11 1 -13 -11 -9 -30 11 -38 43 -11 43 6
0 7 -4 4 -10z m179 -5 c-4 -8 -15 -15 -25 -15 -10 0 -19 7 -19 15 0 9 9 15 25
15 18 0 23 -4 19 -15z m6183 -212 c-1 -43 -3 -8 -3 77 0 85 2 120 3 78 2 -43
2 -113 0 -155z m-6617 207 c0 -5 -5 -10 -11 -10 -5 0 -7 5 -4 10 3 6 8 10 11
10 2 0 4 -4 4 -10z m144 4 c13 -5 14 -9 5 -20 -15 -18 -39 -18 -39 -1 0 12 9
27 16 27 1 0 10 -3 18 -6z m-1044 -39 c0 -8 -6 -15 -14 -15 -17 0 -28 14 -19
24 12 12 33 6 33 -9z m1000 5 c0 -5 -4 -10 -10 -10 -5 0 -10 5 -10 10 0 6 5
10 10 10 6 0 10 -4 10 -10z m160 -25 c-8 -10 -16 -10 -35 -1 l-24 11 22 6 c31
8 50 0 37 -16z m-2520 -10 c0 -9 -6 -12 -16 -8 -13 5 -13 7 -2 14 17 11 18 11
18 -6z m2366 0 c-3 -8 -2 -15 3 -15 5 0 14 7 21 15 7 8 16 15 21 15 5 0 1 -9
-8 -20 -15 -17 -53 -29 -53 -16 0 10 13 36 17 36 3 0 3 -7 -1 -15z m109 -35
c-3 -5 -14 -10 -23 -9 -14 0 -13 2 3 9 17 7 17 9 3 9 -11 1 -15 6 -12 16 5 13
8 13 21 0 8 -8 11 -19 8 -25z m75 30 c0 -5 -2 -10 -4 -10 -3 0 -8 5 -11 10 -3
6 -1 10 4 10 6 0 11 -4 11 -10z m-30 -20 c0 -5 -5 -10 -11 -10 -5 0 -7 5 -4
10 3 6 8 10 11 10 2 0 4 -4 4 -10z m-183 -20 c1 -16 -1 -17 -12 -7 -11 10 -8
19 10 27 1 0 1 -9 2 -20z m-2332 0 c-3 -5 -14 -10 -23 -10 -15 0 -15 2 -2 10
20 13 33 13 25 0z m2499 -28 c-22 -5 -31 7 -14 18 9 6 17 5 22 -3 4 -7 1 -13
-8 -15z m-86 -12 c21 0 13 -6 -20 -14 -21 -5 -28 -3 -28 8 0 16 23 28 28 15 2
-5 11 -9 20 -9z m50 -41 c3 -11 2 -11 -7 1 -9 12 -12 13 -20 1 -5 -8 -11 -9
-15 -3 -3 6 0 13 6 15 19 8 31 3 36 -14z m115 -5 c9 -10 -4 -34 -18 -34 -20 0
-30 21 -14 31 17 10 24 11 32 3z m-148 -24 c3 -5 1 -10 -4 -10 -6 0 -11 5 -11
10 0 6 2 10 4 10 3 0 8 -4 11 -10z m25 -20 c0 -5 -5 -10 -11 -10 -5 0 -7 5 -4
10 3 6 8 10 11 10 2 0 4 -4 4 -10z m-2455 -10 c-3 -5 -10 -10 -16 -10 -5 0 -9
5 -9 10 0 6 7 10 16 10 8 0 12 -4 9 -10z m2495 -4 c0 -2 -7 -7 -16 -10 -8 -3
-12 -2 -9 4 6 10 25 14 25 6z m40 -50 c-12 -13 -29 2 -27 24 1 18 2 18 18 2 9
-9 13 -21 9 -26z m60 27 c0 -15 -2 -16 -10 -3 -8 13 -10 12 -10 -4 0 -15 -3
-17 -11 -9 -6 6 -8 16 -5 22 11 17 36 13 36 -6z m93 -29 c-3 -8 -9 -14 -13
-14 -5 0 -17 -3 -27 -6 -11 -3 -8 1 7 11 14 9 17 14 8 11 -20 -6 -35 10 -16
17 22 7 47 -4 41 -19z m-128 -14 c3 -5 1 -10 -4 -10 -6 0 -11 5 -11 10 0 6 2
10 4 10 3 0 8 -4 11 -10z m6321 -30 c0 -11 -4 -20 -8 -20 -10 0 -11 24 -1 33
9 9 9 10 9 -13z m-6333 -3 c4 3 7 1 7 -6 0 -17 -32 -10 -38 9 -4 12 -3 13 10
3 8 -7 18 -10 21 -6z m192 -7 c3 -5 -1 -10 -10 -10 -9 0 -13 5 -10 10 3 6 8
10 10 10 2 0 7 -4 10 -10z m-861 -55 c-4 -8 -10 -12 -15 -9 -8 5 -14 -18 -10
-39 1 -5 -3 -6 -8 -2 -6 3 -7 13 -4 22 5 12 3 14 -8 9 -8 -4 -3 2 10 13 27 25
43 27 35 6z m543 -38 c-5 -15 -29 -16 -34 -2 -2 6 6 11 18 12 12 1 19 -3 16
-10z m6461 -32 c2 -26 -2 -45 -8 -45 -5 0 -10 20 -10 45 0 58 14 58 18 0z
m-6898 0 c-7 -9 -15 -13 -19 -10 -3 3 1 10 9 15 21 14 24 12 10 -5z m270 6 c0
-5 -6 -13 -13 -19 -15 -13 -42 1 -33 17 8 13 46 15 46 2z m60 -6 c0 -8 -9 -15
-20 -15 -20 0 -26 11 -13 23 12 13 33 7 33 -8z m-385 -5 c-3 -5 -12 -10 -18
-10 -7 0 -6 4 3 10 19 12 23 12 15 0z m473 -17 c-21 -23 -33 -22 -33 0 -1 16
10 23 34 23 20 0 20 -1 -1 -23z m62 -5 c0 -4 -7 -8 -15 -8 -8 0 -15 4 -15 8 0
5 7 9 15 9 8 0 15 -4 15 -9z m-959 -13 c11 6 11 5 2 -5 -12 -14 -33 -6 -33 13
0 8 3 7 9 -2 5 -8 14 -10 22 -6z m697 -9 c-9 -22 -13 -23 -25 -10 -17 17 -9
34 17 34 17 0 18 -3 8 -24z m152 14 c0 -5 -2 -10 -4 -10 -3 0 -8 5 -11 10 -3
6 -1 10 4 10 6 0 11 -4 11 -10z m154 -2 c-5 -8 -2 -9 9 -5 17 6 23 -4 10 -16
-9 -9 -34 13 -27 24 3 5 7 9 10 9 3 0 2 -5 -2 -12z m-89 -28 c-3 -5 -1 -10 5
-10 6 0 8 -5 5 -10 -5 -8 -11 -7 -21 1 -12 10 -12 14 -2 20 17 11 20 11 13 -1z
m6465 1 c0 -6 -4 -13 -10 -16 -5 -3 -10 1 -10 9 0 9 5 16 10 16 6 0 10 -4 10
-9z m-7009 -15 c5 3 9 0 9 -6 0 -7 -7 -9 -16 -6 -9 3 -21 6 -27 6 -7 0 -6 4 3
10 10 6 16 6 18 0 2 -6 8 -8 13 -4z m-321 -6 c0 -5 -9 -10 -21 -10 -11 0 -17
5 -14 10 3 6 13 10 21 10 8 0 14 -4 14 -10z m259 7 c-2 -1 -11 -8 -20 -15 -14
-10 -18 -10 -23 3 -4 11 1 15 21 15 14 0 24 -1 22 -3z m561 -37 c0 -5 -5 -12
-11 -16 -12 -7 -31 15 -23 28 6 9 34 -1 34 -12z m-115 -1 c11 -16 1 -19 -13
-3 -7 8 -8 14 -3 14 5 0 13 -5 16 -11z m-25 -19 c0 -13 -50 -42 -63 -36 -7 2
-4 5 7 5 13 1 17 6 13 21 -3 10 0 21 7 23 14 5 36 -3 36 -13z m-675 -9 c-8
-14 -35 -14 -35 -1 0 5 7 7 15 4 8 -4 15 -1 15 7 0 7 3 10 6 6 3 -3 3 -10 -1
-16z m220 9 c-3 -5 -1 -10 4 -10 6 0 11 6 12 13 0 6 5 1 10 -12 5 -13 7 -26 4
-29 -3 -3 -5 -1 -5 5 0 6 -9 13 -21 16 -17 5 -20 27 -3 27 3 0 2 -4 -1 -10z
m79 -3 c8 9 7 -9 -2 -23 -5 -8 -13 -4 -26 13 -18 25 -18 25 1 14 11 -6 23 -7
27 -4z m856 -42 c0 -8 -6 -15 -14 -15 -17 0 -28 14 -19 24 12 12 33 6 33 -9z
m-441 -4 c9 -6 10 -11 2 -15 -13 -8 -31 1 -31 15 0 11 11 11 29 0z m181 -17
c0 -17 -26 -19 -36 -3 -7 12 15 31 28 23 4 -3 8 -12 8 -20z m6425 16 c3 -5 1
-10 -4 -10 -6 0 -11 5 -11 10 0 6 2 10 4 10 3 0 8 -4 11 -10z m-6686 -16 c-6
-7 -17 -10 -25 -7 -23 8 -16 21 11 21 20 0 23 -3 14 -14z m589 9 c0 -5 2 -16
7 -26 4 -10 5 -21 1 -24 -3 -4 -6 1 -6 9 0 9 -7 19 -16 22 -8 3 -12 10 -9 16
7 12 26 14 23 3z m195 -10 c-7 -17 -18 -16 -32 1 -10 11 -7 14 12 12 15 0 23
-6 20 -13z m-243 -23 c-12 -22 -25 -26 -35 -10 -5 8 19 24 43 29 1 1 -2 -8 -8
-19z m113 3 c4 -3 2 -12 -4 -20 -9 -10 -15 -10 -25 -2 -8 6 -14 15 -14 20 0
10 34 12 43 2z m-426 -19 c-7 -8 -67 -16 -67 -9 0 6 64 23 69 18 2 -1 2 -6 -2
-9z m503 7 c0 -17 -22 -24 -30 -11 -4 7 -13 9 -19 6 -6 -4 -11 -2 -11 3 0 6
14 11 30 11 17 0 30 -4 30 -9z m-845 -21 c3 -5 2 -10 -4 -10 -5 0 -13 5 -16
10 -3 6 -2 10 4 10 5 0 13 -4 16 -10z m-35 -26 c0 -2 -7 -4 -15 -4 -8 0 -15 4
-15 10 0 5 7 7 15 4 8 -4 15 -8 15 -10z m211 3 c-6 -8 -8 -17 -4 -21 4 -4 0
-4 -10 0 -20 7 -22 20 -4 27 23 10 30 7 18 -6z m304 3 c3 -5 1 -10 -4 -10 -6
0 -11 5 -11 10 0 6 2 10 4 10 3 0 8 -4 11 -10z m-450 -18 c3 -9 3 -13 -1 -9
-4 4 -17 1 -29 -7 -21 -14 -22 -13 -20 7 1 12 3 22 4 22 19 6 41 0 46 -13z
m34 -11 c-15 -5 -22 6 -14 19 6 9 10 9 16 -1 5 -8 4 -15 -2 -18z m66 0 c-6 -5
-25 10 -25 20 0 5 6 4 14 -3 8 -7 12 -15 11 -17z m395 19 c8 -5 11 -10 5 -10
-5 0 -17 5 -25 10 -8 5 -10 10 -5 10 6 0 17 -5 25 -10z m6274 -50 c3 -34 1
-48 -5 -39 -9 15 -13 106 -4 97 3 -3 7 -29 9 -58z m-6364 40 c0 -5 -7 -10 -16
-10 -10 0 -14 -6 -11 -14 3 -8 -5 -18 -19 -25 -31 -14 -34 -14 -34 -1 0 6 9
10 21 10 13 0 20 6 18 18 -1 9 -1 20 0 25 2 11 41 8 41 -3z m167 -5 c0 -8 -4
-15 -9 -15 -4 0 -8 7 -8 15 0 8 4 15 8 15 5 0 9 -7 9 -15z m-557 -24 c0 -12
-28 -22 -34 -12 -3 5 -3 11 1 15 9 9 33 7 33 -3z m109 -4 c-7 -7 -20 -13 -30
-13 -13 0 -15 3 -7 13 6 7 19 13 30 13 15 0 16 -3 7 -13z m525 -6 c11 -4 15
-10 10 -13 -5 -4 -18 0 -29 8 -20 15 -12 17 19 5z m-705 -30 c-15 -5 -22 6
-14 19 6 9 10 9 16 -1 5 -8 4 -15 -2 -18z m644 -2 c-12 -12 -33 -4 -33 13 0 6
7 5 17 -3 15 -12 16 -12 9 6 -6 16 -5 18 5 8 10 -10 10 -16 2 -24z m217 27 c0
-3 -4 -8 -10 -11 -5 -3 -10 -1 -10 4 0 6 5 11 10 11 6 0 10 -2 10 -4z m-393
-20 c-3 -8 -1 -17 6 -20 7 -2 5 -5 -5 -5 -9 -1 -20 4 -23 9 -3 6 -1 10 5 10 6
0 8 5 5 10 -3 6 -1 10 5 10 7 0 10 -6 7 -14z m363 0 c0 -8 -5 -18 -10 -21 -13
-8 -42 14 -34 26 9 15 44 10 44 -5z m-1370 -6 c0 -5 -4 -10 -10 -10 -5 0 -10
5 -10 10 0 6 5 10 10 10 6 0 10 -4 10 -10z m771 -2 c0 -10 2 -10 6 0 5 14 23
16 23 3 0 -5 -9 -13 -21 -16 -12 -4 -18 -12 -15 -21 8 -20 2 -18 -20 8 -18 21
-18 21 0 15 14 -6 17 -3 12 8 -3 8 -1 15 4 15 6 0 10 -6 11 -12z m139 2 c0 -5
-5 -10 -11 -10 -5 0 -7 5 -4 10 3 6 8 10 11 10 2 0 4 -4 4 -10z m142 -12 c-7
-7 -12 -8 -12 -2 0 14 12 26 19 19 2 -3 -1 -11 -7 -17z m255 7 c0 -8 -4 -12
-9 -9 -4 3 -8 9 -8 15 0 5 4 9 8 9 5 0 9 -7 9 -15z m-1233 -51 c6 -19 3 -21
-19 -16 -28 5 -33 20 -11 28 8 3 12 13 10 22 -5 14 -4 15 4 2 5 -8 12 -25 16
-36z m899 29 c-7 -3 -9 -12 -6 -21 5 -14 3 -14 -16 2 -23 21 -12 39 18 28 9
-3 11 -7 4 -9z m-986 -8 c0 -8 -4 -12 -9 -9 -5 3 -6 10 -3 15 9 13 12 11 12
-6z m27 0 c3 -8 1 -15 -4 -15 -6 0 -10 7 -10 15 0 8 2 15 4 15 2 0 6 -7 10
-15z m667 -3 c-11 -4 -11 -6 0 -13 11 -7 11 -9 -2 -9 -20 0 -33 27 -16 33 7 2
16 2 22 -1 5 -3 3 -8 -4 -10z m719 -3 c0 -5 -9 -9 -20 -9 -19 0 -26 11 -14 23
8 8 34 -3 34 -14z m-1220 -16 c0 -7 -9 -13 -20 -13 -19 0 -26 11 -15 22 10 10
35 4 35 -9z m1158 -8 c-12 -27 -16 -29 -37 -16 -7 5 -10 14 -6 21 6 9 9 9 16
-1 6 -11 9 -10 15 4 3 9 10 17 15 17 5 0 3 -11 -3 -25z m-778 -1 c0 -2 -7 -4
-15 -4 -8 0 -15 4 -15 10 0 5 7 7 15 4 8 -4 15 -8 15 -10z m59 7 c9 -6 10 -10
2 -16 -16 -9 -44 2 -36 15 8 12 16 12 34 1z m136 -1 c3 -6 -1 -7 -9 -4 -18 7
-21 14 -7 14 6 0 13 -4 16 -10z m65 -6 c0 -9 -7 -14 -17 -12 -25 5 -28 28 -4
28 12 0 21 -6 21 -16z m220 -21 c0 -7 0 -15 0 -18 0 -3 -3 -4 -7 -2 -5 1 -8 9
-8 17 0 8 -7 15 -15 16 -27 2 -31 4 -25 14 8 13 55 -9 55 -27z m-630 17 c0 -5
-5 -10 -11 -10 -5 0 -7 5 -4 10 3 6 8 10 11 10 2 0 4 -4 4 -10z m-400 -31 c0
-5 -9 -9 -20 -9 -19 0 -26 11 -14 23 8 8 34 -3 34 -14z m710 11 c0 -5 -2 -10
-4 -10 -3 0 -8 5 -11 10 -3 6 -1 10 4 10 6 0 11 -4 11 -10z m225 -10 c-3 -4 2
-13 10 -20 11 -9 12 -16 4 -26 -6 -7 -7 -19 -3 -26 5 -9 2 -8 -10 2 -11 8 -14
16 -7 18 13 4 15 32 2 32 -5 0 -11 9 -14 19 -3 14 -1 18 9 14 8 -3 12 -9 9
-13z m-550 -16 c-10 -7 -22 -11 -26 -8 -14 8 14 32 30 26 11 -4 10 -8 -4 -18z
m485 16 c0 -5 -4 -10 -10 -10 -5 0 -10 5 -10 10 0 6 5 10 10 10 6 0 10 -4 10
-10z m598 -9 c3 -8 -1 -12 -9 -9 -7 2 -15 10 -17 17 -3 8 1 12 9 9 7 -2 15
-10 17 -17z m-3002 -47 c-4 -13 -11 -24 -17 -24 -8 0 -8 4 0 14 6 8 11 18 10
22 -1 5 0 18 1 29 2 18 3 18 7 2 3 -10 2 -29 -1 -43z m2917 42 c9 5 9 4 1 -5
-6 -6 -19 -9 -28 -5 -14 5 -15 9 -4 15 7 5 14 4 16 -1 2 -6 9 -7 15 -4z m-888
-6 c-3 -5 -2 -10 4 -10 5 0 12 6 14 13 3 7 6 5 6 -5 1 -12 -6 -18 -19 -18 -11
0 -20 7 -20 15 0 8 5 15 11 15 5 0 7 -4 4 -10z m139 -15 c3 -8 1 -15 -3 -15
-5 0 -11 7 -15 15 -3 8 -1 15 3 15 5 0 11 -7 15 -15z m46 -16 c0 -4 -7 -6 -15
-3 -8 4 -15 10 -15 15 0 4 7 6 15 3 8 -4 15 -10 15 -15z m89 -9 c-10 -28 -29
-41 -29 -20 0 6 5 10 11 10 8 0 8 4 0 14 -9 11 -9 15 1 19 25 10 27 7 17 -23z
m24 5 c-3 -9 -8 -14 -10 -11 -3 3 -2 9 2 15 9 16 15 13 8 -4z m-208 -15 c3 -6
-1 -13 -10 -16 -19 -8 -30 0 -20 15 8 14 22 14 30 1z m119 -7 c-5 -15 -3 -15
10 1 13 16 16 17 16 4 0 -20 -30 -32 -44 -18 -8 8 -7 14 4 20 20 13 20 13 14
-7z m-44 -3 c0 -5 -5 -10 -11 -10 -5 0 -7 5 -4 10 3 6 8 10 11 10 2 0 4 -4 4
-10z m823 -20 c-4 -4 -27 -10 -49 -14 -32 -4 -43 -2 -48 9 -7 20 12 29 29 15
11 -9 18 -8 31 4 13 13 19 14 30 5 8 -7 11 -15 7 -19z m-1153 5 c0 -8 -9 -15
-20 -15 -11 0 -20 4 -20 10 0 5 7 7 15 4 8 -4 15 -1 15 5 0 6 2 11 5 11 3 0 5
-7 5 -15z m201 -24 c6 9 9 10 9 2 0 -6 -5 -15 -11 -19 -15 -9 -33 12 -23 28 7
10 9 9 12 -6 3 -15 6 -16 13 -5z m1012 2 c-5 -12 -3 -14 7 -8 9 5 11 4 6 -4
-6 -9 -11 -9 -22 0 -14 11 -10 29 6 29 5 0 6 -7 3 -17z m57 7 c0 -5 -5 -10
-11 -10 -5 0 -7 5 -4 10 3 6 8 10 11 10 2 0 4 -4 4 -10z m-1300 -14 c0 -11
-19 -15 -25 -6 -3 5 1 10 9 10 9 0 16 -2 16 -4z m7060 -6 c0 -5 -5 -10 -11
-10 -5 0 -7 5 -4 10 3 6 8 10 11 10 2 0 4 -4 4 -10z m-7090 -21 c0 -6 -4 -7
-10 -4 -5 3 -10 11 -10 16 0 6 5 7 10 4 6 -3 10 -11 10 -16z m110 1 c0 -5 -4
-10 -10 -10 -5 0 -10 5 -10 10 0 6 5 10 10 10 6 0 10 -4 10 -10z m56 -22 c5
-8 2 -9 -9 -5 -10 3 -17 2 -17 -4 0 -6 -5 -7 -10 -4 -6 4 -8 11 -5 16 8 13 32
11 41 -3z m-1966 -38 c0 -5 -7 -7 -15 -4 -8 4 -15 8 -15 10 0 2 7 4 15 4 8 0
15 -4 15 -10z m8903 3 c-7 -2 -19 -2 -25 0 -7 3 -2 5 12 5 14 0 19 -2 13 -5z
m-7009 -24 c-7 -11 -34 -12 -34 -1 0 14 11 21 26 15 8 -3 11 -9 8 -14z m268
-121 c-9 -9 -12 -7 -12 12 0 19 3 21 12 12 9 -9 9 -15 0 -24z m-30 -10 c-8 -8
-9 -4 -5 13 4 13 8 18 11 10 2 -7 -1 -18 -6 -23z m-2127 -18 c4 -6 1 -9 -7 -8
-7 2 -12 -3 -10 -10 1 -8 -2 -11 -8 -7 -15 9 -12 35 4 35 8 0 18 -5 21 -10z
m2293 -7 c-12 -14 -38 -18 -38 -5 0 14 11 21 30 19 14 -1 16 -4 8 -14z m42 13
c0 -3 -4 -8 -10 -11 -5 -3 -10 -1 -10 4 0 6 5 11 10 11 6 0 10 -2 10 -4z m25
-27 c10 -15 -1 -23 -20 -15 -9 3 -13 10 -10 16 8 13 22 13 30 -1z m-2360 -39
c-3 -5 -12 -10 -20 -10 -8 0 -17 5 -20 10 -4 6 5 10 20 10 15 0 24 -4 20 -10z
m2174 -27 c-3 -20 2 -26 11 -13 8 13 10 12 10 -2 0 -19 -8 -22 -34 -12 -13 5
-14 9 -5 20 13 15 20 18 18 7z m-64 -13 c-3 -5 -1 -10 6 -10 7 0 10 -3 6 -6
-10 -10 -39 5 -32 16 3 5 11 10 16 10 6 0 7 -4 4 -10z m238 -13 c7 4 6 -1 -2
-11 -11 -13 -16 -14 -22 -4 -4 6 -5 17 -2 22 4 6 8 5 11 -2 2 -7 9 -9 15 -5z
m-54 -46 c8 -5 9 -11 3 -15 -14 -8 -43 4 -36 15 7 11 15 11 33 0z m-18 -50 c7
11 9 10 9 -5 0 -12 -5 -16 -16 -12 -9 3 -18 6 -20 6 -3 0 -2 5 2 12 6 9 9 9
12 -1 4 -11 6 -11 13 0z m-2202 -35 c-3 -3 -11 5 -18 17 -13 21 -12 21 5 5 10
-10 16 -20 13 -22z m2278 21 c10 4 14 2 11 -7 -6 -18 -20 -22 -37 -11 -8 5
-10 14 -5 22 5 9 9 10 11 2 3 -7 11 -9 20 -6z m37 -36 c3 -5 0 -11 -7 -14 -8
-3 -14 1 -14 9 0 16 13 19 21 5z m-2314 -50 c0 -6 -4 -13 -10 -16 -5 -3 -11
-23 -11 -43 -2 -32 -3 -33 -6 -8 -6 35 4 76 17 76 6 0 10 -4 10 -9z m-70 -127
c0 -8 -6 -11 -15 -8 -8 4 -15 9 -15 13 0 4 7 8 15 8 8 0 15 -6 15 -13z m0 -53
c0 -5 -7 -12 -16 -15 -24 -9 -28 -7 -14 9 14 17 30 20 30 6z m5834 -90 c3 -5
-1 -11 -9 -14 -9 -4 -12 -1 -8 9 6 16 10 17 17 5z m-37 -43 c-3 -8 -6 -5 -6 6
-1 11 2 17 5 13 3 -3 4 -12 1 -19z m43 2 c0 -5 -4 -10 -10 -10 -5 0 -10 5 -10
10 0 6 5 10 10 10 6 0 10 -4 10 -10z m40 6 c0 -3 -4 -8 -10 -11 -5 -3 -10 -1
-10 4 0 6 5 11 10 11 6 0 10 -2 10 -4z m-5883 -32 c-3 -3 -12 -4 -19 -1 -8 3
-5 6 6 6 11 1 17 -2 13 -5z m5853 -10 c0 -6 -9 -14 -19 -17 -14 -3 -19 0 -18
13 1 20 37 24 37 4z m-5860 -29 c-7 -9 -15 -13 -18 -10 -3 2 1 11 8 20 7 9 15
13 18 10 3 -2 -1 -11 -8 -20z m5807 -17 c-3 -8 -6 -5 -6 6 -1 11 2 17 5 13 3
-3 4 -12 1 -19z m48 12 c3 -5 -1 -10 -10 -10 -9 0 -13 5 -10 10 3 6 8 10 10
10 2 0 7 -4 10 -10z m21 -22 c-9 -5 -16 -16 -16 -24 0 -8 -4 -13 -8 -10 -5 3
-19 -4 -30 -15 -12 -11 -22 -16 -22 -11 0 5 7 15 15 22 9 7 13 20 10 28 -4 12
-3 12 9 3 11 -10 18 -7 33 13 10 13 20 19 22 14 2 -6 -4 -15 -13 -20z m-5866
-39 c0 -27 -4 -39 -12 -37 -10 4 -13 26 -9 68 1 6 6 10 11 10 6 0 10 -18 10
-41z m5800 21 c0 -5 -4 -10 -10 -10 -5 0 -10 5 -10 10 0 6 5 10 10 10 6 0 10
-4 10 -10z m90 0 c0 -5 -5 -10 -11 -10 -5 0 -7 5 -4 10 3 6 8 10 11 10 2 0 4
-4 4 -10z m0 -40 c0 -4 -6 -10 -13 -13 -7 -3 -13 3 -13 13 0 10 6 16 13 13 7
-3 13 -9 13 -13z m-50 0 c0 -5 -5 -10 -11 -10 -5 0 -7 5 -4 10 3 6 8 10 11 10
2 0 4 -4 4 -10z m1177 -6 c-3 -3 -12 -4 -19 -1 -8 3 -5 6 6 6 11 1 17 -2 13
-5z m70 0 c-3 -3 -12 -4 -19 -1 -8 3 -5 6 6 6 11 1 17 -2 13 -5z m96 -1 c-7
-2 -21 -2 -30 0 -10 3 -4 5 12 5 17 0 24 -2 18 -5z m-1328 -31 c3 -9 0 -12 -9
-9 -8 3 -22 -3 -32 -14 -9 -10 -12 -19 -6 -19 6 0 14 5 17 10 4 6 11 7 18 3 7
-4 4 -9 -9 -14 -43 -17 -59 -3 -29 28 8 8 13 18 10 23 -3 5 4 8 15 7 10 -1 22
-8 25 -15z m88 0 c-3 -7 -8 -10 -11 -8 -3 3 -12 0 -21 -7 -14 -10 -14 -10 -4
4 7 9 11 18 8 20 -2 3 4 5 14 5 12 0 17 -5 14 -14z m85 6 c-6 -18 -28 -21 -28
-4 0 9 7 16 16 16 9 0 14 -5 12 -12z m-41 -4 c-3 -3 -12 -4 -19 -1 -8 3 -5 6
6 6 11 1 17 -2 13 -5z m2920 0 c-3 -3 -12 -4 -19 -1 -8 3 -5 6 6 6 11 1 17 -2
13 -5z m-8847 -13 c0 -13 -29 -41 -41 -41 -6 0 -2 11 8 25 19 25 33 32 33 16z
m-75 -11 c-3 -5 -12 -10 -18 -10 -7 0 -6 4 3 10 19 12 23 12 15 0z m5995 -12
c0 -13 -23 -5 -28 10 -2 7 2 10 12 6 9 -3 16 -11 16 -16z m2893 -29 c3 -25 2
-51 -2 -57 -4 -6 -8 16 -9 50 -3 71 4 75 11 7z m-2980 28 c3 -8 -3 -13 -14
-13 -11 0 -19 6 -19 13 0 7 6 13 14 13 8 0 16 -6 19 -13z m47 3 c0 -5 -7 -10
-16 -10 -8 0 -12 5 -9 10 3 6 10 10 16 10 5 0 9 -4 9 -10z m90 0 c0 -5 -4 -10
-10 -10 -5 0 -10 5 -10 10 0 6 5 10 10 10 6 0 10 -4 10 -10z m21 -13 c-10 -9
-11 -8 -5 6 3 10 9 15 12 12 3 -3 0 -11 -7 -18z m-6054 -53 c1 -16 -1 -21 -3
-11 -3 9 -10 15 -15 12 -5 -4 -9 3 -9 15 0 33 25 18 27 -16z m5661 29 c-10 -2
-26 -2 -35 0 -10 3 -2 5 17 5 19 0 27 -2 18 -5z m42 3 c0 -3 -4 -8 -10 -11 -5
-3 -10 -1 -10 4 0 6 5 11 10 11 6 0 10 -2 10 -4z m-60 -49 c0 -2 -10 -12 -22
-23 l-23 -19 19 23 c18 21 26 27 26 19z m-55 -17 c-3 -5 -12 -10 -18 -10 -7 0
-6 4 3 10 19 12 23 12 15 0z m5 -23 c0 -2 -12 -14 -27 -28 l-28 -24 24 28 c23
25 31 32 31 24z m3290 -65 c0 -15 -2 -15 -10 -2 -13 20 -13 33 0 25 6 -3 10
-14 10 -23z m-3375 -12 c-10 -11 -22 -20 -28 -20 -5 0 1 9 14 20 31 25 37 25
14 0z m-254 -34 c-10 -11 -8 -15 6 -19 15 -3 13 -6 -10 -15 -15 -7 -31 -22
-36 -34 -7 -20 -9 -17 -12 20 -3 23 -1 42 3 42 5 0 8 -7 8 -15 0 -8 5 -15 10
-15 6 0 10 6 10 13 0 7 5 18 12 25 17 17 23 15 9 -2z m2085 -38 c-9 -12 -16
-19 -16 -15 0 11 24 47 28 42 2 -2 -3 -14 -12 -27z m36 0 c-7 -7 -12 -8 -12
-2 0 14 12 26 19 19 2 -3 -1 -11 -7 -17z m-2082 -12 c-5 -14 -5 -27 1 -33 6
-6 4 -15 -7 -24 -15 -12 -17 -12 -9 0 5 10 4 12 -4 7 -6 -4 -9 -11 -6 -16 3
-4 -11 -19 -29 -34 l-34 -26 1 38 c1 20 6 42 12 47 11 12 79 65 82 65 1 0 -2
-11 -7 -24z m2130 -6 c0 -5 -5 -10 -11 -10 -5 0 -7 5 -4 10 3 6 8 10 11 10 2
0 4 -4 4 -10z m-2310 -30 c0 -11 -2 -20 -4 -20 -2 0 -6 9 -9 20 -3 11 -1 20 4
20 5 0 9 -9 9 -20z m2336 -6 c-4 -9 -9 -15 -11 -12 -3 3 -3 13 1 22 4 9 9 15
11 12 3 -3 3 -13 -1 -22z m-2401 -5 c-10 -15 -25 -10 -19 6 4 8 10 12 15 9 5
-3 7 -10 4 -15z m315 17 c0 -2 -8 -10 -17 -17 -16 -13 -17 -12 -4 4 13 16 21
21 21 13z m1741 -35 c-5 -9 -6 -22 -4 -28 3 -9 -4 -12 -22 -11 -23 2 -24 4
-10 14 15 11 15 13 -2 23 -17 10 -17 11 4 17 14 4 20 11 16 18 -4 6 1 5 10 -3
11 -9 14 -18 8 -30z m261 3 c-3 -15 -8 -22 -14 -16 -9 9 -1 42 12 42 4 0 5
-12 2 -26z m-2205 -31 c-3 -10 -5 -4 -5 12 0 17 2 24 5 18 2 -7 2 -21 0 -30z
m-111 12 c14 -13 13 -15 -5 -15 -12 0 -21 6 -21 15 0 8 3 15 6 15 3 0 12 -7
20 -15z m254 1 c0 -2 -8 -10 -17 -17 -16 -13 -17 -12 -4 4 13 16 21 21 21 13z
m1827 -48 c-3 -8 -6 -5 -6 6 -1 11 2 17 5 13 3 -3 4 -12 1 -19z m-20 -24 c-2
-19 -8 -39 -15 -46 -7 -7 -12 -18 -12 -25 0 -7 -4 -13 -9 -13 -6 0 -3 20 6 46
8 25 13 47 10 50 -3 3 -10 -11 -17 -30 -6 -20 -15 -34 -19 -32 -4 3 -7 -4 -7
-14 1 -11 -3 -19 -9 -20 -10 0 -19 86 -11 107 3 8 21 12 45 11 38 -1 40 -2 38
-34z m-7107 10 c0 -8 -4 -12 -10 -9 -5 3 -10 10 -10 16 0 5 5 9 10 9 6 0 10
-7 10 -16z m7170 8 c0 -5 -6 -17 -14 -27 -13 -18 -14 -18 -9 8 5 24 23 39 23
19z m-1120 -42 c0 -5 -4 -10 -10 -10 -5 0 -10 5 -10 10 0 6 5 10 10 10 6 0 10
-4 10 -10z m2870 -15 c0 -8 -4 -16 -9 -19 -5 -3 -8 5 -8 19 0 14 3 22 8 19 5
-3 9 -11 9 -19z m-1571 -37 c1 -10 -5 -18 -13 -18 -9 0 -13 10 -11 33 2 17 4
34 5 37 3 8 19 -34 19 -52z m-239 -26 c0 -47 -15 -52 -16 -6 0 24 3 41 8 38 4
-3 8 -17 8 -32z m-480 24 c0 -2 -7 -7 -16 -10 -8 -3 -12 -2 -9 4 6 10 25 14
25 6z m657 -28 c-3 -7 -5 -2 -5 12 0 14 2 19 5 13 2 -7 2 -19 0 -25z m-7287
-28 c0 -16 -2 -30 -4 -30 -2 0 -6 14 -8 30 -3 17 -1 30 4 30 4 0 8 -13 8 -30z
m7055 11 c-3 -6 -11 -8 -17 -5 -6 4 -5 9 3 15 16 10 23 4 14 -10z m-465 5 c0
-2 -8 -10 -17 -17 -16 -13 -17 -12 -4 4 13 16 21 21 21 13z m472 -48 c-7 -7
-12 -8 -12 -2 0 14 12 26 19 19 2 -3 -1 -11 -7 -17z m1827 -8 c1 13 2 13 11 0
8 -12 10 -12 10 -1 0 21 13 4 15 -19 1 -11 -3 -16 -9 -12 -11 7 -16 8 -36 11
-5 0 -10 11 -9 24 0 21 1 21 9 2 6 -13 9 -15 9 -5z m-8889 -17 c-1 -9 -50 -47
-50 -39 0 5 41 46 47 46 2 0 3 -3 3 -7z m7105 -43 l6 -25 -21 25 c-20 23 -21
23 -17 4 4 -19 2 -20 -19 -10 -21 10 -21 12 -4 18 10 4 21 12 25 18 9 15 21 3
30 -30z m258 16 c3 -8 0 -17 -7 -19 -10 -4 -12 1 -9 14 6 23 9 24 16 5z m-353
-26 c11 -7 6 -9 -17 -7 -18 1 -33 5 -33 10 0 10 32 9 50 -3z m147 -12 c-3 -8
-6 -5 -6 6 -1 11 2 17 5 13 3 -3 4 -12 1 -19z m157 4 c3 -5 -8 -6 -25 -4 -16
2 -29 6 -29 8 0 8 49 4 54 -4z m-311 -29 c-7 -2 -19 -2 -25 0 -7 3 -2 5 12 5
14 0 19 -2 13 -5z m1897 -18 c0 -8 -4 -15 -10 -15 -5 0 -7 7 -4 15 4 8 8 15
10 15 2 0 4 -7 4 -15z m30 -15 c0 -5 -2 -10 -4 -10 -3 0 -8 5 -11 10 -3 6 -1
10 4 10 6 0 11 -4 11 -10z m-1633 -62 c-3 -8 -6 -5 -6 6 -1 11 2 17 5 13 3 -3
4 -12 1 -19z m81 0 c-6 -18 -28 -21 -28 -4 0 9 7 16 16 16 9 0 14 -5 12 -12z
m1501 -125 c1 -7 -3 -13 -9 -13 -5 0 -10 15 -9 33 0 27 2 29 9 12 5 -11 9 -26
9 -32z m-8899 18 c0 -6 -4 -13 -10 -16 -5 -3 -10 1 -10 9 0 9 5 16 10 16 6 0
10 -4 10 -9z m6910 5 c0 -3 -4 -8 -10 -11 -5 -3 -10 -1 -10 4 0 6 5 11 10 11
6 0 10 -2 10 -4z m25 -46 c-3 -5 -12 -10 -18 -10 -7 0 -6 4 3 10 19 12 23 12
15 0z m1905 -4 c0 -3 -4 -8 -10 -11 -5 -3 -10 -1 -10 4 0 6 5 11 10 11 6 0 10
-2 10 -4z m-8843 -12 c-3 -3 -12 -4 -19 -1 -8 3 -5 6 6 6 11 1 17 -2 13 -5z
m8853 -19 c0 -2 -10 -9 -22 -15 -22 -11 -22 -10 -4 4 21 17 26 19 26 11z m44
-20 c3 -8 1 -15 -4 -15 -6 0 -10 7 -10 15 0 8 2 15 4 15 2 0 6 -7 10 -15z
m-8874 -136 c0 -5 -10 -9 -22 -8 -13 0 -17 3 -10 6 6 2 10 9 7 14 -4 5 1 6 9
3 9 -3 16 -10 16 -15z m-12 -41 c16 -16 15 -25 -4 -32 -14 -5 -15 -4 -5 8 10
11 8 17 -6 25 -10 6 -13 11 -7 11 5 0 15 -5 22 -12z m8894 -103 c0 -5 -3 -18
-7 -27 -5 -13 -2 -18 9 -18 12 0 16 10 17 38 2 30 3 32 6 9 3 -15 9 -25 15
-21 5 4 3 -5 -7 -19 -9 -14 -23 -28 -32 -31 -9 -4 -13 -14 -10 -26 3 -11 1
-20 -4 -20 -5 0 -9 44 -8 98 1 80 3 91 11 62 5 -19 9 -39 10 -45z m2 -143 c-6
-4 -9 -26 -9 -50 1 -23 -1 -45 -5 -47 -12 -7 -11 87 1 102 7 7 14 11 18 8 3
-3 1 -9 -5 -13z m-8884 -145 c0 -8 -3 -7 -9 2 -7 11 -11 10 -19 -5 -6 -10 -13
-16 -17 -13 -9 9 25 40 36 34 5 -4 9 -12 9 -18z m8930 -11 c0 -3 -4 -8 -10
-11 -5 -3 -10 -1 -10 4 0 6 5 11 10 11 6 0 10 -2 10 -4z m-40 -16 c0 -5 -2
-10 -4 -10 -3 0 -8 5 -11 10 -3 6 -1 10 4 10 6 0 11 -4 11 -10z m-8910 -110
c0 -5 -5 -10 -11 -10 -5 0 -7 5 -4 10 3 6 8 10 11 10 2 0 4 -4 4 -10z m20
-350 c0 -5 -7 -10 -15 -10 -8 0 -15 5 -15 10 0 6 7 10 15 10 8 0 15 -4 15 -10z
m67 -92 c-3 -8 -6 -5 -6 6 -1 11 2 17 5 13 3 -3 4 -12 1 -19z m8863 -156 c0
-12 -3 -13 -12 -4 -7 7 -23 13 -37 13 -24 1 -24 2 4 8 36 9 45 5 45 -17z
m-8933 -54 c-3 -7 -5 -2 -5 12 0 14 2 19 5 13 2 -7 2 -19 0 -25z m8913 -2 c0
-2 -11 -6 -25 -8 -13 -3 -22 -1 -19 3 5 9 44 13 44 5z m-8910 -66 c0 -5 -4
-10 -10 -10 -5 0 -10 5 -10 10 0 6 5 10 10 10 6 0 10 -4 10 -10z m4820 -120
c0 -5 -2 -10 -4 -10 -3 0 -8 5 -11 10 -3 6 -1 10 4 10 6 0 11 -4 11 -10z
m4047 -52 c-3 -7 -5 -2 -5 12 0 14 2 19 5 13 2 -7 2 -19 0 -25z m-8877 -2 c0
-3 -4 -8 -10 -11 -5 -3 -10 -1 -10 4 0 6 5 11 10 11 6 0 10 -2 10 -4z m8850
-6 c0 -5 -5 -10 -11 -10 -5 0 -7 5 -4 10 3 6 8 10 11 10 2 0 4 -4 4 -10z m40
-64 c0 -3 -4 -8 -10 -11 -5 -3 -10 -1 -10 4 0 6 5 11 10 11 6 0 10 -2 10 -4z
m2 -78 c-8 -31 -17 -28 -18 7 -1 25 2 30 11 22 7 -6 10 -19 7 -29z m-8902 12
c0 -5 -2 -10 -4 -10 -3 0 -8 5 -11 10 -3 6 -1 10 4 10 6 0 11 -4 11 -10z m17
-22 c-3 -7 -5 -2 -5 12 0 14 2 19 5 13 2 -7 2 -19 0 -25z m5058 22 c3 -5 1
-10 -4 -10 -6 0 -11 5 -11 10 0 6 2 10 4 10 3 0 8 -4 11 -10z m-5058 -227 c-3
-10 -5 -4 -5 12 0 17 2 24 5 18 2 -7 2 -21 0 -30z m0 -65 c-3 -7 -5 -2 -5 12
0 14 2 19 5 13 2 -7 2 -19 0 -25z m0 -125 c-3 -10 -5 -4 -5 12 0 17 2 24 5 18
2 -7 2 -21 0 -30z m3 -115 c0 -11 -12 -10 -30 2 -12 7 -10 9 8 7 12 0 22 -5
22 -9z m70 -5 c0 -10 -4 -14 -8 -8 -4 6 -11 13 -16 18 -5 4 -2 7 7 7 10 0 17
-8 17 -17z m-73 -215 c-3 -7 -5 -2 -5 12 0 14 2 19 5 13 2 -7 2 -19 0 -25z
m56 -33 c-3 -9 -8 -14 -10 -11 -3 3 -2 9 2 15 9 16 15 13 8 -4z m-56 -97 c-3
-7 -5 -2 -5 12 0 14 2 19 5 13 2 -7 2 -19 0 -25z m3 -65 c0 -24 -3 -33 -9 -25
-7 12 -4 62 5 62 2 0 4 -17 4 -37z m-20 -103 c0 -5 -2 -10 -4 -10 -3 0 -8 5
-11 10 -3 6 -1 10 4 10 6 0 11 -4 11 -10z m17 -37 c-3 -10 -5 -4 -5 12 0 17 2
24 5 18 2 -7 2 -21 0 -30z m4296 -2920 c-7 -2 -19 -2 -25 0 -7 3 -2 5 12 5 14
0 19 -2 13 -5z"/>
<path d="M8940 11849 c0 -5 5 -7 10 -4 6 3 10 8 10 11 0 2 -4 4 -10 4 -5 0
-10 -5 -10 -11z"/>
<path d="M7094 6429 c-3 -6 -1 -16 6 -22 10 -9 12 -8 7 5 -3 9 -1 19 6 22 9 3
9 5 0 5 -6 1 -15 -4 -19 -10z"/>
<path d="M7 12473 c-12 -11 -8 -23 8 -23 8 0 15 7 15 15 0 16 -12 20 -23 8z"/>
<path d="M0 12430 c0 -5 7 -7 15 -4 19 8 19 14 0 14 -8 0 -15 -4 -15 -10z"/>
<path d="M2 11938 c-1 -54 22 -70 26 -18 1 17 -2 30 -7 30 -5 0 -11 8 -13 18
-3 9 -5 -4 -6 -30z"/>
<path d="M7 11853 c-3 -5 -1 -17 3 -28 6 -17 7 -16 12 8 5 25 -5 37 -15 20z"/>
<path d="M5 11792 c12 -8 18 -55 6 -48 -4 3 -8 -1 -8 -8 0 -8 6 -12 14 -9 7 3
13 20 13 39 0 26 -4 34 -17 34 -11 0 -14 -3 -8 -8z"/>
<path d="M8991 11584 c0 -11 3 -14 6 -6 3 7 2 16 -1 19 -3 4 -6 -2 -5 -13z"/>
<path d="M2 11352 c-2 -27 1 -33 15 -30 26 5 31 64 5 64 -14 0 -19 -9 -20 -34z
m23 -2 c3 -5 1 -10 -4 -10 -6 0 -11 5 -11 10 0 6 2 10 4 10 3 0 8 -4 11 -10z"/>
<path d="M15 10830 c4 -6 11 -8 16 -5 14 9 11 15 -7 15 -8 0 -12 -5 -9 -10z"/>
<path d="M0 10800 c0 -5 9 -10 20 -10 11 0 20 5 20 10 0 6 -9 10 -20 10 -11 0
-20 -4 -20 -10z"/>
<path d="M8980 10545 c0 -8 5 -15 10 -15 6 0 10 7 10 15 0 8 -4 15 -10 15 -5
0 -10 -7 -10 -15z"/>
<path d="M31 10034 c0 -11 3 -14 6 -6 3 7 2 16 -1 19 -3 4 -6 -2 -5 -13z"/>
<path d="M8971 9954 c0 -11 3 -14 6 -6 3 7 2 16 -1 19 -3 4 -6 -2 -5 -13z"/>
<path d="M10 9920 c-8 -15 -8 -20 3 -20 7 0 13 9 13 20 0 11 -1 20 -3 20 -1 0
-7 -9 -13 -20z"/>
<path d="M8991 9904 c0 -11 3 -14 6 -6 3 7 2 16 -1 19 -3 4 -6 -2 -5 -13z"/>
<path d="M10 8840 c-13 -8 -12 -10 3 -10 9 0 17 5 17 10 0 12 -1 12 -20 0z"/>
<path d="M0 8530 c0 -5 5 -10 11 -10 5 0 7 5 4 10 -3 6 -8 10 -11 10 -2 0 -4
-4 -4 -10z"/>
<path d="M20 8394 c0 -8 5 -12 10 -9 6 3 10 10 10 16 0 5 -4 9 -10 9 -5 0 -10
-7 -10 -16z"/>
<path d="M5 7140 c3 -5 8 -10 11 -10 2 0 4 5 4 10 0 6 -5 10 -11 10 -5 0 -7
-4 -4 -10z"/>
<path d="M30 7114 c0 -8 5 -12 10 -9 6 3 10 10 10 16 0 5 -4 9 -10 9 -5 0 -10
-7 -10 -16z"/>
<path d="M6 6694 c-8 -21 -8 -26 2 -20 4 3 8 -9 8 -26 -1 -22 4 -32 17 -34 9
-1 17 2 17 7 0 5 -6 9 -12 9 -9 0 -8 4 2 10 12 8 13 11 1 19 -9 6 -10 11 -2
15 6 4 11 15 10 24 0 11 -2 13 -6 4 -4 -9 -9 -10 -18 -2 -9 8 -14 6 -19 -6z"/>
<path d="M23 5526 c0 -8 6 -12 14 -9 17 7 17 23 0 23 -8 0 -14 -6 -14 -14z"/>
<path d="M42 5380 c0 -14 2 -19 5 -12 2 6 2 18 0 25 -3 6 -5 1 -5 -13z"/>
<path d="M27 4964 c3 -7 9 -14 14 -14 14 0 10 17 -5 23 -10 4 -13 1 -9 -9z"/>
</g>
</svg>
